<mxfile host="app.diagrams.net" modified="2023-12-23T16:59:45.251Z" agent="Mozilla/5.0 (Windows NT 10.0; Win64; x64) AppleWebKit/537.36 (KHTML, like Gecko) Chrome/120.0.0.0 Safari/537.36" etag="iX3PYnpKG9mqu1nlWKxh" version="22.1.11" type="github">
  <diagram name="Page-1" id="tNx86WEGERc1XLciAWc1">
    <mxGraphModel dx="1434" dy="738" grid="1" gridSize="10" guides="1" tooltips="1" connect="1" arrows="1" fold="1" page="1" pageScale="1" pageWidth="4681" pageHeight="3300" math="0" shadow="0">
      <root>
        <mxCell id="0" />
        <mxCell id="1" parent="0" />
        <mxCell id="3hXHIrawqCX14PC-SLRN-3" style="edgeStyle=orthogonalEdgeStyle;rounded=0;orthogonalLoop=1;jettySize=auto;html=1;exitX=0.5;exitY=0;exitDx=0;exitDy=0;curved=1;" parent="1" source="3hXHIrawqCX14PC-SLRN-1" target="3hXHIrawqCX14PC-SLRN-2" edge="1">
          <mxGeometry relative="1" as="geometry" />
        </mxCell>
        <mxCell id="TqPIP2dE-nrRqcoiC80p-8" style="edgeStyle=orthogonalEdgeStyle;rounded=0;orthogonalLoop=1;jettySize=auto;html=1;entryX=0.5;entryY=1;entryDx=0;entryDy=0;curved=1;" parent="1" source="3hXHIrawqCX14PC-SLRN-1" target="TqPIP2dE-nrRqcoiC80p-7" edge="1">
          <mxGeometry relative="1" as="geometry" />
        </mxCell>
        <mxCell id="TqPIP2dE-nrRqcoiC80p-18" style="edgeStyle=orthogonalEdgeStyle;curved=1;rounded=0;orthogonalLoop=1;jettySize=auto;html=1;exitX=0.5;exitY=1;exitDx=0;exitDy=0;" parent="1" source="3hXHIrawqCX14PC-SLRN-1" target="TqPIP2dE-nrRqcoiC80p-15" edge="1">
          <mxGeometry relative="1" as="geometry" />
        </mxCell>
        <mxCell id="TqPIP2dE-nrRqcoiC80p-22" style="edgeStyle=orthogonalEdgeStyle;curved=1;rounded=0;orthogonalLoop=1;jettySize=auto;html=1;" parent="1" source="3hXHIrawqCX14PC-SLRN-1" target="TqPIP2dE-nrRqcoiC80p-20" edge="1">
          <mxGeometry relative="1" as="geometry" />
        </mxCell>
        <mxCell id="3hXHIrawqCX14PC-SLRN-1" value="Quantum mechanics" style="ellipse;whiteSpace=wrap;html=1;" parent="1" vertex="1">
          <mxGeometry x="2400" y="1730" width="120" height="80" as="geometry" />
        </mxCell>
        <mxCell id="3hXHIrawqCX14PC-SLRN-2" value="Molecules energy: translation, rotation, vibration, electrons" style="rounded=0;whiteSpace=wrap;html=1;" parent="1" vertex="1">
          <mxGeometry x="2600" y="1570" width="120" height="60" as="geometry" />
        </mxCell>
        <mxCell id="TqPIP2dE-nrRqcoiC80p-4" style="edgeStyle=orthogonalEdgeStyle;rounded=0;orthogonalLoop=1;jettySize=auto;html=1;exitX=0.5;exitY=0;exitDx=0;exitDy=0;entryX=0;entryY=0.5;entryDx=0;entryDy=0;curved=1;" parent="1" source="TqPIP2dE-nrRqcoiC80p-1" target="TqPIP2dE-nrRqcoiC80p-2" edge="1">
          <mxGeometry relative="1" as="geometry" />
        </mxCell>
        <mxCell id="TqPIP2dE-nrRqcoiC80p-5" style="edgeStyle=orthogonalEdgeStyle;rounded=0;orthogonalLoop=1;jettySize=auto;html=1;curved=1;" parent="1" source="TqPIP2dE-nrRqcoiC80p-1" target="TqPIP2dE-nrRqcoiC80p-3" edge="1">
          <mxGeometry relative="1" as="geometry" />
        </mxCell>
        <mxCell id="TqPIP2dE-nrRqcoiC80p-1" value="Classical Mechanics" style="ellipse;whiteSpace=wrap;html=1;" parent="1" vertex="1">
          <mxGeometry x="1500" y="1630" width="120" height="80" as="geometry" />
        </mxCell>
        <mxCell id="TqPIP2dE-nrRqcoiC80p-2" value="Kinematics: mathematical description of movement" style="rounded=0;whiteSpace=wrap;html=1;" parent="1" vertex="1">
          <mxGeometry x="1600" y="1510" width="160" height="60" as="geometry" />
        </mxCell>
        <mxCell id="TqPIP2dE-nrRqcoiC80p-3" value="Dynamics: explanation of movement origins" style="rounded=0;whiteSpace=wrap;html=1;" parent="1" vertex="1">
          <mxGeometry x="1780" y="1510" width="120" height="60" as="geometry" />
        </mxCell>
        <mxCell id="TqPIP2dE-nrRqcoiC80p-14" style="edgeStyle=orthogonalEdgeStyle;rounded=0;orthogonalLoop=1;jettySize=auto;html=1;exitX=0.5;exitY=0;exitDx=0;exitDy=0;curved=1;" parent="1" source="TqPIP2dE-nrRqcoiC80p-6" target="TqPIP2dE-nrRqcoiC80p-13" edge="1">
          <mxGeometry relative="1" as="geometry" />
        </mxCell>
        <mxCell id="TqPIP2dE-nrRqcoiC80p-6" value="Electrons: Born-Oppenheimer approximation lead to time-independent Schroedinger equation - DFT" style="rounded=0;whiteSpace=wrap;html=1;" parent="1" vertex="1">
          <mxGeometry x="2070" y="1440" width="180" height="80" as="geometry" />
        </mxCell>
        <mxCell id="TqPIP2dE-nrRqcoiC80p-9" style="edgeStyle=orthogonalEdgeStyle;rounded=0;orthogonalLoop=1;jettySize=auto;html=1;curved=1;" parent="1" source="TqPIP2dE-nrRqcoiC80p-7" target="TqPIP2dE-nrRqcoiC80p-6" edge="1">
          <mxGeometry relative="1" as="geometry" />
        </mxCell>
        <mxCell id="TqPIP2dE-nrRqcoiC80p-11" style="edgeStyle=orthogonalEdgeStyle;rounded=0;orthogonalLoop=1;jettySize=auto;html=1;curved=1;" parent="1" source="TqPIP2dE-nrRqcoiC80p-7" target="TqPIP2dE-nrRqcoiC80p-10" edge="1">
          <mxGeometry relative="1" as="geometry" />
        </mxCell>
        <mxCell id="TqPIP2dE-nrRqcoiC80p-7" value="Modeling scales" style="rounded=0;whiteSpace=wrap;html=1;" parent="1" vertex="1">
          <mxGeometry x="2200" y="1590" width="120" height="60" as="geometry" />
        </mxCell>
        <mxCell id="TqPIP2dE-nrRqcoiC80p-10" value="Ions are represented in the framework of classical mechanics - MD" style="rounded=0;whiteSpace=wrap;html=1;" parent="1" vertex="1">
          <mxGeometry x="2270" y="1440" width="180" height="80" as="geometry" />
        </mxCell>
        <mxCell id="TqPIP2dE-nrRqcoiC80p-13" value="For DFT: need operators position and momentum" style="rounded=0;whiteSpace=wrap;html=1;" parent="1" vertex="1">
          <mxGeometry x="2050" y="1300" width="120" height="60" as="geometry" />
        </mxCell>
        <mxCell id="TqPIP2dE-nrRqcoiC80p-17" style="edgeStyle=orthogonalEdgeStyle;curved=1;rounded=0;orthogonalLoop=1;jettySize=auto;html=1;exitX=0;exitY=0.5;exitDx=0;exitDy=0;" parent="1" source="TqPIP2dE-nrRqcoiC80p-15" target="TqPIP2dE-nrRqcoiC80p-16" edge="1">
          <mxGeometry relative="1" as="geometry" />
        </mxCell>
        <mxCell id="TqPIP2dE-nrRqcoiC80p-24" style="edgeStyle=orthogonalEdgeStyle;curved=1;rounded=0;orthogonalLoop=1;jettySize=auto;html=1;" parent="1" source="TqPIP2dE-nrRqcoiC80p-15" target="TqPIP2dE-nrRqcoiC80p-23" edge="1">
          <mxGeometry relative="1" as="geometry" />
        </mxCell>
        <mxCell id="TqPIP2dE-nrRqcoiC80p-15" value="Concepts" style="rounded=0;whiteSpace=wrap;html=1;" parent="1" vertex="1">
          <mxGeometry x="2270" y="1870" width="120" height="60" as="geometry" />
        </mxCell>
        <mxCell id="TqPIP2dE-nrRqcoiC80p-16" value="Hermitian operators" style="rounded=0;whiteSpace=wrap;html=1;" parent="1" vertex="1">
          <mxGeometry x="2140" y="1970" width="120" height="60" as="geometry" />
        </mxCell>
        <mxCell id="TqPIP2dE-nrRqcoiC80p-20" value="Karplus (1970), Atoms and Molecules" style="rounded=1;whiteSpace=wrap;html=1;" parent="1" vertex="1">
          <mxGeometry x="1900" y="1870" width="120" height="60" as="geometry" />
        </mxCell>
        <mxCell id="TqPIP2dE-nrRqcoiC80p-23" value="Hamiltonian" style="rounded=0;whiteSpace=wrap;html=1;" parent="1" vertex="1">
          <mxGeometry x="2270" y="1970" width="120" height="60" as="geometry" />
        </mxCell>
        <mxCell id="7mW2jRSYt9szHhjCyHMU-4" style="edgeStyle=orthogonalEdgeStyle;curved=1;rounded=0;orthogonalLoop=1;jettySize=auto;html=1;exitX=0.5;exitY=0;exitDx=0;exitDy=0;entryX=0;entryY=0.5;entryDx=0;entryDy=0;" parent="1" source="7mW2jRSYt9szHhjCyHMU-1" target="7mW2jRSYt9szHhjCyHMU-2" edge="1">
          <mxGeometry relative="1" as="geometry" />
        </mxCell>
        <mxCell id="7mW2jRSYt9szHhjCyHMU-6" style="edgeStyle=orthogonalEdgeStyle;curved=1;rounded=0;orthogonalLoop=1;jettySize=auto;html=1;" parent="1" source="7mW2jRSYt9szHhjCyHMU-1" target="7mW2jRSYt9szHhjCyHMU-5" edge="1">
          <mxGeometry relative="1" as="geometry" />
        </mxCell>
        <mxCell id="7mW2jRSYt9szHhjCyHMU-8" style="edgeStyle=orthogonalEdgeStyle;rounded=0;orthogonalLoop=1;jettySize=auto;html=1;curved=1;" parent="1" source="7mW2jRSYt9szHhjCyHMU-1" target="7mW2jRSYt9szHhjCyHMU-7" edge="1">
          <mxGeometry relative="1" as="geometry" />
        </mxCell>
        <mxCell id="F8Z7RI5J12eTx9FljP0N-6" style="edgeStyle=orthogonalEdgeStyle;rounded=0;orthogonalLoop=1;jettySize=auto;html=1;entryX=0.5;entryY=1;entryDx=0;entryDy=0;curved=1;" parent="1" source="7mW2jRSYt9szHhjCyHMU-1" target="F8Z7RI5J12eTx9FljP0N-2" edge="1">
          <mxGeometry relative="1" as="geometry" />
        </mxCell>
        <mxCell id="7mW2jRSYt9szHhjCyHMU-1" value="Julia" style="ellipse;whiteSpace=wrap;html=1;" parent="1" vertex="1">
          <mxGeometry x="2830" y="1870" width="120" height="80" as="geometry" />
        </mxCell>
        <UserObject label="Basics" link="https://juliaacademy.com/courses/enrolled/375479" linkTarget="_blank" id="7mW2jRSYt9szHhjCyHMU-2">
          <mxCell style="rounded=0;whiteSpace=wrap;html=1;" parent="1" vertex="1">
            <mxGeometry x="2980" y="1790" width="120" height="60" as="geometry" />
          </mxCell>
        </UserObject>
        <UserObject label="Parallel&lt;br&gt;computing" link="https://juliaacademy.com/courses/enrolled/552107" linkTarget="_blank" id="7mW2jRSYt9szHhjCyHMU-5">
          <mxCell style="rounded=0;whiteSpace=wrap;html=1;" parent="1" vertex="1">
            <mxGeometry x="2970" y="1980" width="120" height="60" as="geometry" />
          </mxCell>
        </UserObject>
        <mxCell id="7mW2jRSYt9szHhjCyHMU-10" style="edgeStyle=orthogonalEdgeStyle;rounded=0;orthogonalLoop=1;jettySize=auto;html=1;entryX=0.5;entryY=0;entryDx=0;entryDy=0;curved=1;" parent="1" source="7mW2jRSYt9szHhjCyHMU-7" target="7mW2jRSYt9szHhjCyHMU-9" edge="1">
          <mxGeometry relative="1" as="geometry" />
        </mxCell>
        <mxCell id="7mW2jRSYt9szHhjCyHMU-12" style="edgeStyle=orthogonalEdgeStyle;rounded=0;orthogonalLoop=1;jettySize=auto;html=1;entryX=0.5;entryY=0;entryDx=0;entryDy=0;curved=1;" parent="1" source="7mW2jRSYt9szHhjCyHMU-7" target="7mW2jRSYt9szHhjCyHMU-11" edge="1">
          <mxGeometry relative="1" as="geometry" />
        </mxCell>
        <mxCell id="7mW2jRSYt9szHhjCyHMU-7" value="Packaging" style="rounded=0;whiteSpace=wrap;html=1;" parent="1" vertex="1">
          <mxGeometry x="2690" y="1960" width="120" height="60" as="geometry" />
        </mxCell>
        <mxCell id="7mW2jRSYt9szHhjCyHMU-14" style="edgeStyle=orthogonalEdgeStyle;rounded=0;orthogonalLoop=1;jettySize=auto;html=1;entryX=0.5;entryY=0;entryDx=0;entryDy=0;curved=1;" parent="1" source="7mW2jRSYt9szHhjCyHMU-9" target="7mW2jRSYt9szHhjCyHMU-13" edge="1">
          <mxGeometry relative="1" as="geometry" />
        </mxCell>
        <UserObject label="Documenter.jl" link="https://documenter.juliadocs.org/stable/" linkTarget="_blank" id="7mW2jRSYt9szHhjCyHMU-9">
          <mxCell style="rounded=0;whiteSpace=wrap;html=1;" parent="1" vertex="1">
            <mxGeometry x="2610" y="2070" width="120" height="60" as="geometry" />
          </mxCell>
        </UserObject>
        <UserObject label="Pkg.jl" link="https://pkgdocs.julialang.org/v1/" linkTarget="_blank" id="7mW2jRSYt9szHhjCyHMU-11">
          <mxCell style="rounded=0;whiteSpace=wrap;html=1;" parent="1" vertex="1">
            <mxGeometry x="2770" y="2070" width="120" height="60" as="geometry" />
          </mxCell>
        </UserObject>
        <UserObject label="GitHub Actions" link="https://docs.github.com/en/actions/learn-github-actions" linkTarget="_blank" id="7mW2jRSYt9szHhjCyHMU-13">
          <mxCell style="shape=parallelogram;perimeter=parallelogramPerimeter;whiteSpace=wrap;html=1;fixedSize=1;" parent="1" vertex="1">
            <mxGeometry x="2480" y="2160" width="120" height="60" as="geometry" />
          </mxCell>
        </UserObject>
        <mxCell id="QDy-FQWbMPKasR52hYSL-4" style="edgeStyle=orthogonalEdgeStyle;curved=1;rounded=0;orthogonalLoop=1;jettySize=auto;html=1;exitX=0.5;exitY=0;exitDx=0;exitDy=0;entryX=0;entryY=0.5;entryDx=0;entryDy=0;" parent="1" source="QDy-FQWbMPKasR52hYSL-2" target="QDy-FQWbMPKasR52hYSL-3" edge="1">
          <mxGeometry relative="1" as="geometry" />
        </mxCell>
        <mxCell id="QDy-FQWbMPKasR52hYSL-2" value="To review" style="shape=process;whiteSpace=wrap;html=1;backgroundOutline=1;" parent="1" vertex="1">
          <mxGeometry x="870" y="1710" width="120" height="60" as="geometry" />
        </mxCell>
        <mxCell id="QDy-FQWbMPKasR52hYSL-7" style="edgeStyle=orthogonalEdgeStyle;curved=1;rounded=0;orthogonalLoop=1;jettySize=auto;html=1;entryX=0;entryY=0.5;entryDx=0;entryDy=0;" parent="1" source="QDy-FQWbMPKasR52hYSL-3" target="QDy-FQWbMPKasR52hYSL-5" edge="1">
          <mxGeometry relative="1" as="geometry" />
        </mxCell>
        <mxCell id="QDy-FQWbMPKasR52hYSL-8" style="edgeStyle=orthogonalEdgeStyle;curved=1;rounded=0;orthogonalLoop=1;jettySize=auto;html=1;entryX=0;entryY=0.5;entryDx=0;entryDy=0;" parent="1" source="QDy-FQWbMPKasR52hYSL-3" target="QDy-FQWbMPKasR52hYSL-6" edge="1">
          <mxGeometry relative="1" as="geometry" />
        </mxCell>
        <mxCell id="QDy-FQWbMPKasR52hYSL-3" value="Granular heat transfer" style="ellipse;whiteSpace=wrap;html=1;" parent="1" vertex="1">
          <mxGeometry x="1030" y="1620" width="80" height="80" as="geometry" />
        </mxCell>
        <UserObject label="Nemati, 2021" link="https://1drv.ms/b/s!Ar4x-UlrYAiZjv4O83J4rxP3v68lgA?e=0grBoP" linkTarget="_blank" id="QDy-FQWbMPKasR52hYSL-5">
          <mxCell style="rounded=0;whiteSpace=wrap;html=1;" parent="1" vertex="1">
            <mxGeometry x="1170" y="1600" width="120" height="60" as="geometry" />
          </mxCell>
        </UserObject>
        <UserObject label="Oii (project leader)" link="https://www.eng.ed.ac.uk/research/projects/multi-scale-approach-characterising-fluid-contribution-conductive-heat-transfer" linkTarget="_blank" id="QDy-FQWbMPKasR52hYSL-6">
          <mxCell style="rounded=0;whiteSpace=wrap;html=1;" parent="1" vertex="1">
            <mxGeometry x="1170" y="1680" width="120" height="60" as="geometry" />
          </mxCell>
        </UserObject>
        <mxCell id="tdlnybzZ0rQNsdedE5Ah-23" style="edgeStyle=orthogonalEdgeStyle;curved=1;rounded=0;orthogonalLoop=1;jettySize=auto;html=1;entryX=0;entryY=0.5;entryDx=0;entryDy=0;" parent="1" source="tdlnybzZ0rQNsdedE5Ah-1" target="tdlnybzZ0rQNsdedE5Ah-22" edge="1">
          <mxGeometry relative="1" as="geometry" />
        </mxCell>
        <mxCell id="tdlnybzZ0rQNsdedE5Ah-1" value="Kaolinite&lt;br&gt;(Al2O3)(2SiO2)(2H2O)" style="ellipse;whiteSpace=wrap;html=1;" parent="1" vertex="1">
          <mxGeometry x="1270" y="2370" width="140" height="80" as="geometry" />
        </mxCell>
        <mxCell id="tdlnybzZ0rQNsdedE5Ah-3" style="edgeStyle=orthogonalEdgeStyle;rounded=0;orthogonalLoop=1;jettySize=auto;html=1;entryX=0;entryY=0.5;entryDx=0;entryDy=0;curved=1;" parent="1" source="tdlnybzZ0rQNsdedE5Ah-2" target="tdlnybzZ0rQNsdedE5Ah-1" edge="1">
          <mxGeometry relative="1" as="geometry" />
        </mxCell>
        <mxCell id="tdlnybzZ0rQNsdedE5Ah-14" style="edgeStyle=orthogonalEdgeStyle;curved=1;rounded=0;orthogonalLoop=1;jettySize=auto;html=1;entryX=0.5;entryY=1;entryDx=0;entryDy=0;" parent="1" source="tdlnybzZ0rQNsdedE5Ah-2" target="tdlnybzZ0rQNsdedE5Ah-13" edge="1">
          <mxGeometry relative="1" as="geometry" />
        </mxCell>
        <mxCell id="tdlnybzZ0rQNsdedE5Ah-2" value="Schieltz (1964)" style="rounded=1;whiteSpace=wrap;html=1;" parent="1" vertex="1">
          <mxGeometry x="1030" y="2310" width="120" height="60" as="geometry" />
        </mxCell>
        <mxCell id="tdlnybzZ0rQNsdedE5Ah-6" value="Transformations" style="swimlane;fontStyle=0;childLayout=stackLayout;horizontal=1;startSize=30;horizontalStack=0;resizeParent=1;resizeParentMax=0;resizeLast=0;collapsible=1;marginBottom=0;whiteSpace=wrap;html=1;" parent="1" vertex="1">
          <mxGeometry x="1020" y="2090" width="240" height="120" as="geometry" />
        </mxCell>
        <mxCell id="tdlnybzZ0rQNsdedE5Ah-7" value="Low temperature drying" style="text;strokeColor=none;fillColor=none;align=left;verticalAlign=middle;spacingLeft=4;spacingRight=4;overflow=hidden;points=[[0,0.5],[1,0.5]];portConstraint=eastwest;rotatable=0;whiteSpace=wrap;html=1;" parent="tdlnybzZ0rQNsdedE5Ah-6" vertex="1">
          <mxGeometry y="30" width="240" height="30" as="geometry" />
        </mxCell>
        <mxCell id="tdlnybzZ0rQNsdedE5Ah-8" value="Dehydroxilation at 500-600 °C" style="text;strokeColor=none;fillColor=none;align=left;verticalAlign=middle;spacingLeft=4;spacingRight=4;overflow=hidden;points=[[0,0.5],[1,0.5]];portConstraint=eastwest;rotatable=0;whiteSpace=wrap;html=1;" parent="tdlnybzZ0rQNsdedE5Ah-6" vertex="1">
          <mxGeometry y="60" width="240" height="30" as="geometry" />
        </mxCell>
        <mxCell id="tdlnybzZ0rQNsdedE5Ah-9" value="Crystallization at 980 °C" style="text;strokeColor=none;fillColor=none;align=left;verticalAlign=middle;spacingLeft=4;spacingRight=4;overflow=hidden;points=[[0,0.5],[1,0.5]];portConstraint=eastwest;rotatable=0;whiteSpace=wrap;html=1;" parent="tdlnybzZ0rQNsdedE5Ah-6" vertex="1">
          <mxGeometry y="90" width="240" height="30" as="geometry" />
        </mxCell>
        <mxCell id="tdlnybzZ0rQNsdedE5Ah-10" style="edgeStyle=orthogonalEdgeStyle;curved=1;rounded=0;orthogonalLoop=1;jettySize=auto;html=1;entryX=0.5;entryY=0;entryDx=0;entryDy=0;" parent="1" source="tdlnybzZ0rQNsdedE5Ah-8" target="tdlnybzZ0rQNsdedE5Ah-1" edge="1">
          <mxGeometry relative="1" as="geometry" />
        </mxCell>
        <mxCell id="tdlnybzZ0rQNsdedE5Ah-12" style="edgeStyle=orthogonalEdgeStyle;curved=1;rounded=0;orthogonalLoop=1;jettySize=auto;html=1;entryX=0;entryY=0.5;entryDx=0;entryDy=0;" parent="1" source="tdlnybzZ0rQNsdedE5Ah-11" target="tdlnybzZ0rQNsdedE5Ah-1" edge="1">
          <mxGeometry relative="1" as="geometry" />
        </mxCell>
        <UserObject label="Robie (1991) (low temperature data)" link="https://doi.org/10.1346/CCMN.1991.0390404" linkTarget="_blank" id="tdlnybzZ0rQNsdedE5Ah-11">
          <mxCell style="rounded=1;whiteSpace=wrap;html=1;" parent="1" vertex="1">
            <mxGeometry x="1030" y="2380" width="120" height="60" as="geometry" />
          </mxCell>
        </UserObject>
        <mxCell id="tdlnybzZ0rQNsdedE5Ah-13" value="Quartz/Glass&lt;br&gt;(SiO2)" style="ellipse;whiteSpace=wrap;html=1;" parent="1" vertex="1">
          <mxGeometry x="830" y="2200" width="140" height="80" as="geometry" />
        </mxCell>
        <mxCell id="tdlnybzZ0rQNsdedE5Ah-16" style="edgeStyle=orthogonalEdgeStyle;curved=1;rounded=0;orthogonalLoop=1;jettySize=auto;html=1;" parent="1" source="tdlnybzZ0rQNsdedE5Ah-15" target="tdlnybzZ0rQNsdedE5Ah-1" edge="1">
          <mxGeometry relative="1" as="geometry" />
        </mxCell>
        <mxCell id="tdlnybzZ0rQNsdedE5Ah-17" style="edgeStyle=orthogonalEdgeStyle;curved=1;rounded=0;orthogonalLoop=1;jettySize=auto;html=1;" parent="1" source="tdlnybzZ0rQNsdedE5Ah-15" target="tdlnybzZ0rQNsdedE5Ah-2" edge="1">
          <mxGeometry relative="1" as="geometry" />
        </mxCell>
        <UserObject label="Nicholson (1970)" link="https://doi.org/10.1111/j.1151-2916.1970.tb12084.x" linkTarget="_blank" id="tdlnybzZ0rQNsdedE5Ah-15">
          <mxCell style="rounded=1;whiteSpace=wrap;html=1;" parent="1" vertex="1">
            <mxGeometry x="1200" y="2240" width="120" height="60" as="geometry" />
          </mxCell>
        </UserObject>
        <mxCell id="tdlnybzZ0rQNsdedE5Ah-19" style="edgeStyle=orthogonalEdgeStyle;curved=1;rounded=0;orthogonalLoop=1;jettySize=auto;html=1;entryX=0;entryY=1;entryDx=0;entryDy=0;" parent="1" source="tdlnybzZ0rQNsdedE5Ah-18" target="tdlnybzZ0rQNsdedE5Ah-1" edge="1">
          <mxGeometry relative="1" as="geometry">
            <Array as="points">
              <mxPoint x="1291" y="2570" />
            </Array>
          </mxGeometry>
        </mxCell>
        <UserObject label="Meinhold (1992-2)" link="https://doi.org/10.1039/JM9920200913" linkTarget="_blank" id="tdlnybzZ0rQNsdedE5Ah-18">
          <mxCell style="rounded=1;whiteSpace=wrap;html=1;" parent="1" vertex="1">
            <mxGeometry x="1010" y="2540" width="120" height="60" as="geometry" />
          </mxCell>
        </UserObject>
        <mxCell id="tdlnybzZ0rQNsdedE5Ah-21" style="edgeStyle=orthogonalEdgeStyle;curved=1;rounded=0;orthogonalLoop=1;jettySize=auto;html=1;entryX=0;entryY=1;entryDx=0;entryDy=0;" parent="1" source="tdlnybzZ0rQNsdedE5Ah-20" target="tdlnybzZ0rQNsdedE5Ah-1" edge="1">
          <mxGeometry relative="1" as="geometry" />
        </mxCell>
        <UserObject label="Meinhold (1992-1)" link="https://doi.org/10.1007/BF01979617" linkTarget="_blank" id="tdlnybzZ0rQNsdedE5Ah-20">
          <mxCell style="rounded=1;whiteSpace=wrap;html=1;" parent="1" vertex="1">
            <mxGeometry x="1010" y="2470" width="120" height="60" as="geometry" />
          </mxCell>
        </UserObject>
        <mxCell id="tdlnybzZ0rQNsdedE5Ah-51" style="edgeStyle=orthogonalEdgeStyle;curved=1;rounded=0;orthogonalLoop=1;jettySize=auto;html=1;" parent="1" source="tdlnybzZ0rQNsdedE5Ah-22" target="tdlnybzZ0rQNsdedE5Ah-50" edge="1">
          <mxGeometry relative="1" as="geometry" />
        </mxCell>
        <mxCell id="tdlnybzZ0rQNsdedE5Ah-22" value="Multiple-hearth furnace" style="ellipse;whiteSpace=wrap;html=1;" parent="1" vertex="1">
          <mxGeometry x="1590" y="2370" width="120" height="80" as="geometry" />
        </mxCell>
        <mxCell id="tdlnybzZ0rQNsdedE5Ah-25" style="edgeStyle=orthogonalEdgeStyle;curved=1;rounded=0;orthogonalLoop=1;jettySize=auto;html=1;entryX=0.5;entryY=1;entryDx=0;entryDy=0;" parent="1" source="tdlnybzZ0rQNsdedE5Ah-24" target="tdlnybzZ0rQNsdedE5Ah-1" edge="1">
          <mxGeometry relative="1" as="geometry" />
        </mxCell>
        <UserObject label="Holm (2001)" link="https://doi.org/10.1039/B010031P" linkTarget="_blank" id="tdlnybzZ0rQNsdedE5Ah-24">
          <mxCell style="rounded=1;whiteSpace=wrap;html=1;" parent="1" vertex="1">
            <mxGeometry x="1010" y="2610" width="120" height="60" as="geometry" />
          </mxCell>
        </UserObject>
        <mxCell id="tdlnybzZ0rQNsdedE5Ah-27" style="edgeStyle=orthogonalEdgeStyle;curved=1;rounded=0;orthogonalLoop=1;jettySize=auto;html=1;entryX=1;entryY=0;entryDx=0;entryDy=0;" parent="1" source="tdlnybzZ0rQNsdedE5Ah-26" target="tdlnybzZ0rQNsdedE5Ah-1" edge="1">
          <mxGeometry relative="1" as="geometry" />
        </mxCell>
        <UserObject label="Ptacek (2014)" link="https://doi.org/10.1016/j.powtec.2014.05.047" linkTarget="_blank" id="tdlnybzZ0rQNsdedE5Ah-26">
          <mxCell style="rounded=1;whiteSpace=wrap;html=1;" parent="1" vertex="1">
            <mxGeometry x="1460" y="2150" width="120" height="60" as="geometry" />
          </mxCell>
        </UserObject>
        <mxCell id="tdlnybzZ0rQNsdedE5Ah-29" style="edgeStyle=orthogonalEdgeStyle;curved=1;rounded=0;orthogonalLoop=1;jettySize=auto;html=1;entryX=1;entryY=0;entryDx=0;entryDy=0;" parent="1" source="tdlnybzZ0rQNsdedE5Ah-28" target="tdlnybzZ0rQNsdedE5Ah-1" edge="1">
          <mxGeometry relative="1" as="geometry" />
        </mxCell>
        <UserObject label="Michot (2008)" link="https://doi.org/10.1016/j.jeurceramsoc.2008.04.007" linkTarget="_blank" id="tdlnybzZ0rQNsdedE5Ah-28">
          <mxCell style="rounded=1;whiteSpace=wrap;html=1;" parent="1" vertex="1">
            <mxGeometry x="1460" y="2080" width="120" height="60" as="geometry" />
          </mxCell>
        </UserObject>
        <mxCell id="tdlnybzZ0rQNsdedE5Ah-33" style="edgeStyle=orthogonalEdgeStyle;curved=1;rounded=0;orthogonalLoop=1;jettySize=auto;html=1;entryX=0;entryY=1;entryDx=0;entryDy=0;" parent="1" source="tdlnybzZ0rQNsdedE5Ah-32" target="tdlnybzZ0rQNsdedE5Ah-22" edge="1">
          <mxGeometry relative="1" as="geometry" />
        </mxCell>
        <mxCell id="tdlnybzZ0rQNsdedE5Ah-39" style="edgeStyle=orthogonalEdgeStyle;curved=1;rounded=0;orthogonalLoop=1;jettySize=auto;html=1;entryX=1;entryY=1;entryDx=0;entryDy=0;" parent="1" source="tdlnybzZ0rQNsdedE5Ah-32" target="tdlnybzZ0rQNsdedE5Ah-1" edge="1">
          <mxGeometry relative="1" as="geometry" />
        </mxCell>
        <UserObject label="Eskelinen (2015)" link="https://doi.org/10.1002/aic.14903" linkTarget="_blank" id="tdlnybzZ0rQNsdedE5Ah-32">
          <mxCell style="rounded=1;whiteSpace=wrap;html=1;" parent="1" vertex="1">
            <mxGeometry x="1460" y="2520" width="120" height="60" as="geometry" />
          </mxCell>
        </UserObject>
        <mxCell id="tdlnybzZ0rQNsdedE5Ah-36" style="edgeStyle=orthogonalEdgeStyle;curved=1;rounded=0;orthogonalLoop=1;jettySize=auto;html=1;entryX=0.5;entryY=1;entryDx=0;entryDy=0;" parent="1" source="tdlnybzZ0rQNsdedE5Ah-35" target="tdlnybzZ0rQNsdedE5Ah-22" edge="1">
          <mxGeometry relative="1" as="geometry" />
        </mxCell>
        <mxCell id="tdlnybzZ0rQNsdedE5Ah-38" style="edgeStyle=orthogonalEdgeStyle;curved=1;rounded=0;orthogonalLoop=1;jettySize=auto;html=1;entryX=1;entryY=1;entryDx=0;entryDy=0;" parent="1" source="tdlnybzZ0rQNsdedE5Ah-35" target="tdlnybzZ0rQNsdedE5Ah-1" edge="1">
          <mxGeometry relative="1" as="geometry" />
        </mxCell>
        <UserObject label="Eskelinen (2016)" link="https://doi.org/10.1016/j.ifacol.2016.10.120" linkTarget="_blank" id="tdlnybzZ0rQNsdedE5Ah-35">
          <mxCell style="rounded=1;whiteSpace=wrap;html=1;" parent="1" vertex="1">
            <mxGeometry x="1460" y="2590" width="120" height="60" as="geometry" />
          </mxCell>
        </UserObject>
        <mxCell id="tdlnybzZ0rQNsdedE5Ah-50" value="Rotary kiln" style="ellipse;whiteSpace=wrap;html=1;" parent="1" vertex="1">
          <mxGeometry x="1940" y="2370" width="120" height="80" as="geometry" />
        </mxCell>
        <mxCell id="tdlnybzZ0rQNsdedE5Ah-53" style="edgeStyle=orthogonalEdgeStyle;curved=1;rounded=0;orthogonalLoop=1;jettySize=auto;html=1;" parent="1" source="tdlnybzZ0rQNsdedE5Ah-52" target="tdlnybzZ0rQNsdedE5Ah-50" edge="1">
          <mxGeometry relative="1" as="geometry" />
        </mxCell>
        <mxCell id="tdlnybzZ0rQNsdedE5Ah-54" style="edgeStyle=orthogonalEdgeStyle;curved=1;rounded=0;orthogonalLoop=1;jettySize=auto;html=1;entryX=1;entryY=0.5;entryDx=0;entryDy=0;" parent="1" source="tdlnybzZ0rQNsdedE5Ah-52" target="tdlnybzZ0rQNsdedE5Ah-32" edge="1">
          <mxGeometry relative="1" as="geometry" />
        </mxCell>
        <UserObject label="Hanein (2017)" link="https://doi.org/10.1080/17436753.2017.1303261" linkTarget="_blank" id="tdlnybzZ0rQNsdedE5Ah-52">
          <mxCell style="rounded=1;whiteSpace=wrap;html=1;" parent="1" vertex="1">
            <mxGeometry x="1810" y="2640" width="120" height="60" as="geometry" />
          </mxCell>
        </UserObject>
        <mxCell id="tdlnybzZ0rQNsdedE5Ah-55" value="Solids kinetics" style="ellipse;whiteSpace=wrap;html=1;" parent="1" vertex="1">
          <mxGeometry x="1520" y="1780" width="120" height="80" as="geometry" />
        </mxCell>
        <mxCell id="tdlnybzZ0rQNsdedE5Ah-57" style="edgeStyle=orthogonalEdgeStyle;curved=1;rounded=0;orthogonalLoop=1;jettySize=auto;html=1;" parent="1" source="tdlnybzZ0rQNsdedE5Ah-56" target="tdlnybzZ0rQNsdedE5Ah-55" edge="1">
          <mxGeometry relative="1" as="geometry" />
        </mxCell>
        <mxCell id="tdlnybzZ0rQNsdedE5Ah-58" style="edgeStyle=orthogonalEdgeStyle;curved=1;rounded=0;orthogonalLoop=1;jettySize=auto;html=1;entryX=0.5;entryY=0;entryDx=0;entryDy=0;" parent="1" source="tdlnybzZ0rQNsdedE5Ah-56" target="tdlnybzZ0rQNsdedE5Ah-1" edge="1">
          <mxGeometry relative="1" as="geometry" />
        </mxCell>
        <UserObject label="Arcenegui-Troya(2021)" link="https:// doi.org/10.3390/pr9101852" linkTarget="_blank" id="tdlnybzZ0rQNsdedE5Ah-56">
          <mxCell style="rounded=1;whiteSpace=wrap;html=1;" parent="1" vertex="1">
            <mxGeometry x="1090" y="1960" width="120" height="60" as="geometry" />
          </mxCell>
        </UserObject>
        <mxCell id="tdlnybzZ0rQNsdedE5Ah-60" style="edgeStyle=orthogonalEdgeStyle;curved=1;rounded=0;orthogonalLoop=1;jettySize=auto;html=1;" parent="1" source="tdlnybzZ0rQNsdedE5Ah-59" target="tdlnybzZ0rQNsdedE5Ah-1" edge="1">
          <mxGeometry relative="1" as="geometry" />
        </mxCell>
        <UserObject label="Hanein (2023)" link="DOI&#x9;https://doi.org/10.1039/D3TA01896B" linkTarget="_blank" id="tdlnybzZ0rQNsdedE5Ah-59">
          <mxCell style="rounded=1;whiteSpace=wrap;html=1;" parent="1" vertex="1">
            <mxGeometry x="1460" y="2010" width="120" height="60" as="geometry" />
          </mxCell>
        </UserObject>
        <mxCell id="tdlnybzZ0rQNsdedE5Ah-62" style="edgeStyle=orthogonalEdgeStyle;curved=1;rounded=0;orthogonalLoop=1;jettySize=auto;html=1;entryX=1;entryY=0;entryDx=0;entryDy=0;" parent="1" source="tdlnybzZ0rQNsdedE5Ah-61" target="tdlnybzZ0rQNsdedE5Ah-1" edge="1">
          <mxGeometry relative="1" as="geometry" />
        </mxCell>
        <UserObject label="Daou (2020)" link="https://doi.org/10.3390/min10050480" linkTarget="_blank" id="tdlnybzZ0rQNsdedE5Ah-61">
          <mxCell style="rounded=1;whiteSpace=wrap;html=1;" parent="1" vertex="1">
            <mxGeometry x="1460" y="2220" width="120" height="60" as="geometry" />
          </mxCell>
        </UserObject>
        <mxCell id="tdlnybzZ0rQNsdedE5Ah-67" value="" style="group" parent="1" vertex="1" connectable="0">
          <mxGeometry x="1140" y="2680" width="400" height="100" as="geometry" />
        </mxCell>
        <mxCell id="tdlnybzZ0rQNsdedE5Ah-66" value="" style="group" parent="tdlnybzZ0rQNsdedE5Ah-67" vertex="1" connectable="0">
          <mxGeometry width="400" height="100" as="geometry" />
        </mxCell>
        <mxCell id="tdlnybzZ0rQNsdedE5Ah-65" value="" style="rounded=0;whiteSpace=wrap;html=1;" parent="tdlnybzZ0rQNsdedE5Ah-66" vertex="1">
          <mxGeometry width="400" height="100" as="geometry" />
        </mxCell>
        <mxCell id="tdlnybzZ0rQNsdedE5Ah-40" value="Fuentes (2016)" style="rounded=1;whiteSpace=wrap;html=1;" parent="tdlnybzZ0rQNsdedE5Ah-66" vertex="1">
          <mxGeometry x="10" y="20" width="120" height="60" as="geometry" />
        </mxCell>
        <mxCell id="tdlnybzZ0rQNsdedE5Ah-42" value="Fuentes (2019)" style="rounded=1;whiteSpace=wrap;html=1;" parent="tdlnybzZ0rQNsdedE5Ah-66" vertex="1">
          <mxGeometry x="270" y="20" width="120" height="60" as="geometry" />
        </mxCell>
        <mxCell id="tdlnybzZ0rQNsdedE5Ah-41" value="Fuentes (2018)" style="rounded=1;whiteSpace=wrap;html=1;" parent="tdlnybzZ0rQNsdedE5Ah-67" vertex="1">
          <mxGeometry x="140" y="20" width="120" height="60" as="geometry" />
        </mxCell>
        <mxCell id="tdlnybzZ0rQNsdedE5Ah-68" style="edgeStyle=orthogonalEdgeStyle;curved=1;rounded=0;orthogonalLoop=1;jettySize=auto;html=1;entryX=0.5;entryY=1;entryDx=0;entryDy=0;" parent="1" source="tdlnybzZ0rQNsdedE5Ah-65" target="tdlnybzZ0rQNsdedE5Ah-1" edge="1">
          <mxGeometry relative="1" as="geometry" />
        </mxCell>
        <mxCell id="tdlnybzZ0rQNsdedE5Ah-69" style="edgeStyle=orthogonalEdgeStyle;curved=1;rounded=0;orthogonalLoop=1;jettySize=auto;html=1;entryX=0.5;entryY=1;entryDx=0;entryDy=0;" parent="1" source="tdlnybzZ0rQNsdedE5Ah-65" target="tdlnybzZ0rQNsdedE5Ah-22" edge="1">
          <mxGeometry relative="1" as="geometry" />
        </mxCell>
        <mxCell id="tdlnybzZ0rQNsdedE5Ah-74" style="edgeStyle=orthogonalEdgeStyle;curved=1;rounded=0;orthogonalLoop=1;jettySize=auto;html=1;entryX=1;entryY=1;entryDx=0;entryDy=0;" parent="1" source="tdlnybzZ0rQNsdedE5Ah-70" target="tdlnybzZ0rQNsdedE5Ah-1" edge="1">
          <mxGeometry relative="1" as="geometry" />
        </mxCell>
        <mxCell id="tdlnybzZ0rQNsdedE5Ah-70" value="Lecomte (2004)" style="rounded=1;whiteSpace=wrap;html=1;" parent="1" vertex="1">
          <mxGeometry x="1460" y="2450" width="120" height="60" as="geometry" />
        </mxCell>
        <mxCell id="Zyr4BZ1Q4nSmmZ4n6RKA-2" style="edgeStyle=orthogonalEdgeStyle;rounded=0;orthogonalLoop=1;jettySize=auto;html=1;entryX=1;entryY=0;entryDx=0;entryDy=0;curved=1;" parent="1" source="Zyr4BZ1Q4nSmmZ4n6RKA-1" target="tdlnybzZ0rQNsdedE5Ah-1" edge="1">
          <mxGeometry relative="1" as="geometry" />
        </mxCell>
        <mxCell id="Zyr4BZ1Q4nSmmZ4n6RKA-1" value="Thomas (2010)" style="rounded=1;whiteSpace=wrap;html=1;" parent="1" vertex="1">
          <mxGeometry x="1460" y="2290" width="120" height="60" as="geometry" />
        </mxCell>
        <mxCell id="oKSYJBpqH4JwEt-eYhXz-3" style="edgeStyle=orthogonalEdgeStyle;rounded=0;orthogonalLoop=1;jettySize=auto;html=1;curved=1;" parent="1" source="oKSYJBpqH4JwEt-eYhXz-1" edge="1">
          <mxGeometry relative="1" as="geometry">
            <mxPoint x="1340" y="2370" as="targetPoint" />
          </mxGeometry>
        </mxCell>
        <mxCell id="oKSYJBpqH4JwEt-eYhXz-5" style="edgeStyle=orthogonalEdgeStyle;rounded=0;orthogonalLoop=1;jettySize=auto;html=1;entryX=0;entryY=0.5;entryDx=0;entryDy=0;curved=1;" parent="1" source="oKSYJBpqH4JwEt-eYhXz-1" target="tdlnybzZ0rQNsdedE5Ah-55" edge="1">
          <mxGeometry relative="1" as="geometry" />
        </mxCell>
        <mxCell id="oKSYJBpqH4JwEt-eYhXz-1" value="Kissinger (1957)" style="rounded=1;whiteSpace=wrap;html=1;" parent="1" vertex="1">
          <mxGeometry x="1090" y="1880" width="120" height="60" as="geometry" />
        </mxCell>
        <mxCell id="CWGAY0bIbkOi0LySRLev-3" style="edgeStyle=orthogonalEdgeStyle;rounded=0;orthogonalLoop=1;jettySize=auto;html=1;entryX=0;entryY=0.5;entryDx=0;entryDy=0;curved=1;" parent="1" source="CWGAY0bIbkOi0LySRLev-1" target="CWGAY0bIbkOi0LySRLev-2" edge="1">
          <mxGeometry relative="1" as="geometry" />
        </mxCell>
        <mxCell id="CWGAY0bIbkOi0LySRLev-5" style="edgeStyle=orthogonalEdgeStyle;rounded=0;orthogonalLoop=1;jettySize=auto;html=1;exitX=1;exitY=0.5;exitDx=0;exitDy=0;curved=1;entryX=0;entryY=0.5;entryDx=0;entryDy=0;" parent="1" source="CWGAY0bIbkOi0LySRLev-1" target="CWGAY0bIbkOi0LySRLev-4" edge="1">
          <mxGeometry relative="1" as="geometry" />
        </mxCell>
        <mxCell id="CWGAY0bIbkOi0LySRLev-7" style="edgeStyle=orthogonalEdgeStyle;rounded=0;orthogonalLoop=1;jettySize=auto;html=1;curved=1;" parent="1" source="CWGAY0bIbkOi0LySRLev-1" target="CWGAY0bIbkOi0LySRLev-6" edge="1">
          <mxGeometry relative="1" as="geometry" />
        </mxCell>
        <mxCell id="CWGAY0bIbkOi0LySRLev-1" value="OCW MIT" style="ellipse;whiteSpace=wrap;html=1;" parent="1" vertex="1">
          <mxGeometry x="2510" y="2400" width="120" height="80" as="geometry" />
        </mxCell>
        <mxCell id="CWGAY0bIbkOi0LySRLev-2" value="Mathematics" style="rounded=1;whiteSpace=wrap;html=1;" parent="1" vertex="1">
          <mxGeometry x="2700" y="2270" width="120" height="60" as="geometry" />
        </mxCell>
        <mxCell id="CWGAY0bIbkOi0LySRLev-4" value="Materials" style="rounded=1;whiteSpace=wrap;html=1;" parent="1" vertex="1">
          <mxGeometry x="2700" y="2550" width="120" height="60" as="geometry" />
        </mxCell>
        <mxCell id="CWGAY0bIbkOi0LySRLev-6" value="Physics" style="rounded=1;whiteSpace=wrap;html=1;" parent="1" vertex="1">
          <mxGeometry x="2700" y="2410" width="120" height="60" as="geometry" />
        </mxCell>
        <UserObject label="Introduction to modeling and simulation (2012)" link="https://ocw.mit.edu/courses/3-021j-introduction-to-modeling-and-simulation-spring-2012/" linkTarget="_blank" id="CWGAY0bIbkOi0LySRLev-8">
          <mxCell style="rounded=1;whiteSpace=wrap;html=1;" parent="1" vertex="1">
            <mxGeometry x="3220" y="2280" width="120" height="60" as="geometry" />
          </mxCell>
        </UserObject>
        <UserObject label="Thermodynamics and kinetics of materials (2006)" link="https://ocw.mit.edu/courses/3-205-thermodynamics-and-kinetics-of-materials-fall-2006/" linkTarget="_blank" id="CWGAY0bIbkOi0LySRLev-11">
          <mxCell style="rounded=1;whiteSpace=wrap;html=1;" parent="1" vertex="1">
            <mxGeometry x="3260" y="2430" width="120" height="60" as="geometry" />
          </mxCell>
        </UserObject>
        <UserObject label="Kinetic processes in materials (2006)" link="https://ocw.mit.edu/courses/3-21-kinetic-processes-in-materials-spring-2006/" linkTarget="_blank" id="CWGAY0bIbkOi0LySRLev-13">
          <mxCell style="rounded=1;whiteSpace=wrap;html=1;" parent="1" vertex="1">
            <mxGeometry x="3260" y="2500" width="120" height="60" as="geometry" />
          </mxCell>
        </UserObject>
        <UserObject label="Transport phenomena in materials engineering (2003)" link="https://ocw.mit.edu/courses/3-185-transport-phenomena-in-materials-engineering-fall-2003/" linkTarget="_blank" id="CWGAY0bIbkOi0LySRLev-15">
          <mxCell style="rounded=1;whiteSpace=wrap;html=1;" parent="1" vertex="1">
            <mxGeometry x="3100" y="2660" width="120" height="60" as="geometry" />
          </mxCell>
        </UserObject>
        <UserObject label="Thermodynamics of materials (2002)" link="https://ocw.mit.edu/courses/3-00-thermodynamics-of-materials-fall-2002/" linkTarget="_blank" id="CWGAY0bIbkOi0LySRLev-17">
          <mxCell style="rounded=1;whiteSpace=wrap;html=1;" parent="1" vertex="1">
            <mxGeometry x="3080" y="2450" width="120" height="60" as="geometry" />
          </mxCell>
        </UserObject>
        <UserObject label="Atomistic computer modeling of materials (2005)" link="https://ocw.mit.edu/courses/3-320-atomistic-computer-modeling-of-materials-sma-5107-spring-2005/" linkTarget="_blank" id="CWGAY0bIbkOi0LySRLev-18">
          <mxCell style="rounded=1;whiteSpace=wrap;html=1;" parent="1" vertex="1">
            <mxGeometry x="3080" y="2280" width="120" height="60" as="geometry" />
          </mxCell>
        </UserObject>
        <UserObject label="Materials processing (2013)" link="https://ocw.mit.edu/courses/3-044-materials-processing-spring-2013/" linkTarget="_blank" id="CWGAY0bIbkOi0LySRLev-19">
          <mxCell style="rounded=1;whiteSpace=wrap;html=1;" parent="1" vertex="1">
            <mxGeometry x="3260" y="2660" width="120" height="60" as="geometry" />
          </mxCell>
        </UserObject>
        <UserObject label="Mathematics of materials scientists and engineers (2005)" link="https://ocw.mit.edu/courses/3-016-mathematics-for-materials-scientists-and-engineers-fall-2005/" id="CWGAY0bIbkOi0LySRLev-20">
          <mxCell style="rounded=1;whiteSpace=wrap;html=1;" parent="1" vertex="1">
            <mxGeometry x="2870" y="2370" width="120" height="60" as="geometry" />
          </mxCell>
        </UserObject>
        <UserObject label="Thermodynamics of materials (2021)" link="https://ocw.mit.edu/courses/3-020-thermodynamics-of-materials-spring-2021/" linkTarget="_blank" id="CWGAY0bIbkOi0LySRLev-21">
          <mxCell style="rounded=1;whiteSpace=wrap;html=1;" parent="1" vertex="1">
            <mxGeometry x="3080" y="2520" width="120" height="60" as="geometry" />
          </mxCell>
        </UserObject>
        <UserObject label="Introduction to network models (2018)" link="https://ocw.mit.edu/courses/1-022-introduction-to-network-models-fall-2018/" linkTarget="_blank" id="CWGAY0bIbkOi0LySRLev-22">
          <mxCell style="rounded=1;whiteSpace=wrap;html=1;" parent="1" vertex="1">
            <mxGeometry x="2870" y="2270" width="120" height="60" as="geometry" />
          </mxCell>
        </UserObject>
        <UserObject label="Calculus with theory (2010)" link="https://ocw.mit.edu/courses/18-014-calculus-with-theory-fall-2010/" linkTarget="_blank" id="CWGAY0bIbkOi0LySRLev-23">
          <mxCell style="rounded=1;whiteSpace=wrap;html=1;" parent="1" vertex="1">
            <mxGeometry x="2870" y="2190" width="120" height="60" as="geometry" />
          </mxCell>
        </UserObject>
        <mxCell id="F8Z7RI5J12eTx9FljP0N-1" value="FVM/MD methods" style="ellipse;whiteSpace=wrap;html=1;" parent="1" vertex="1">
          <mxGeometry x="2880" y="2710" width="120" height="80" as="geometry" />
        </mxCell>
        <mxCell id="F8Z7RI5J12eTx9FljP0N-10" value="" style="group" parent="1" vertex="1" connectable="0">
          <mxGeometry x="2830" y="1610" width="440" height="140" as="geometry" />
        </mxCell>
        <mxCell id="F8Z7RI5J12eTx9FljP0N-2" value="Notebooks" style="rounded=0;whiteSpace=wrap;html=1;" parent="F8Z7RI5J12eTx9FljP0N-10" vertex="1">
          <mxGeometry y="40" width="120" height="60" as="geometry" />
        </mxCell>
        <mxCell id="F8Z7RI5J12eTx9FljP0N-3" value="Pluto.jl" style="rounded=0;whiteSpace=wrap;html=1;" parent="F8Z7RI5J12eTx9FljP0N-10" vertex="1">
          <mxGeometry x="180" width="120" height="60" as="geometry" />
        </mxCell>
        <mxCell id="F8Z7RI5J12eTx9FljP0N-7" style="edgeStyle=orthogonalEdgeStyle;rounded=0;orthogonalLoop=1;jettySize=auto;html=1;entryX=0;entryY=0.5;entryDx=0;entryDy=0;curved=1;" parent="F8Z7RI5J12eTx9FljP0N-10" source="F8Z7RI5J12eTx9FljP0N-2" target="F8Z7RI5J12eTx9FljP0N-3" edge="1">
          <mxGeometry relative="1" as="geometry" />
        </mxCell>
        <mxCell id="F8Z7RI5J12eTx9FljP0N-4" value="Weave.jl" style="rounded=0;whiteSpace=wrap;html=1;" parent="F8Z7RI5J12eTx9FljP0N-10" vertex="1">
          <mxGeometry x="180" y="80" width="120" height="60" as="geometry" />
        </mxCell>
        <mxCell id="F8Z7RI5J12eTx9FljP0N-8" style="edgeStyle=orthogonalEdgeStyle;rounded=0;orthogonalLoop=1;jettySize=auto;html=1;entryX=0;entryY=0.5;entryDx=0;entryDy=0;curved=1;" parent="F8Z7RI5J12eTx9FljP0N-10" source="F8Z7RI5J12eTx9FljP0N-2" target="F8Z7RI5J12eTx9FljP0N-4" edge="1">
          <mxGeometry relative="1" as="geometry" />
        </mxCell>
        <UserObject label="PlutoSliderServer.jl" link="https://github.com/JuliaPluto/PlutoSliderServer.jl" linkTarget="_blank" id="F8Z7RI5J12eTx9FljP0N-5">
          <mxCell style="rounded=0;whiteSpace=wrap;html=1;" parent="F8Z7RI5J12eTx9FljP0N-10" vertex="1">
            <mxGeometry x="320" width="120" height="60" as="geometry" />
          </mxCell>
        </UserObject>
        <mxCell id="F8Z7RI5J12eTx9FljP0N-9" style="edgeStyle=orthogonalEdgeStyle;rounded=0;orthogonalLoop=1;jettySize=auto;html=1;" parent="F8Z7RI5J12eTx9FljP0N-10" source="F8Z7RI5J12eTx9FljP0N-3" target="F8Z7RI5J12eTx9FljP0N-5" edge="1">
          <mxGeometry relative="1" as="geometry" />
        </mxCell>
        <mxCell id="hsRsZUTRCoiMY5jrvdhL-3" style="edgeStyle=orthogonalEdgeStyle;rounded=0;orthogonalLoop=1;jettySize=auto;html=1;entryX=0;entryY=0.5;entryDx=0;entryDy=0;" parent="1" source="hsRsZUTRCoiMY5jrvdhL-1" target="hsRsZUTRCoiMY5jrvdhL-2" edge="1">
          <mxGeometry relative="1" as="geometry" />
        </mxCell>
        <mxCell id="hsRsZUTRCoiMY5jrvdhL-5" style="edgeStyle=orthogonalEdgeStyle;rounded=0;orthogonalLoop=1;jettySize=auto;html=1;" parent="1" source="hsRsZUTRCoiMY5jrvdhL-1" target="hsRsZUTRCoiMY5jrvdhL-4" edge="1">
          <mxGeometry relative="1" as="geometry" />
        </mxCell>
        <mxCell id="5GMF99luiS3yryMFOBaJ-2" style="edgeStyle=orthogonalEdgeStyle;rounded=0;orthogonalLoop=1;jettySize=auto;html=1;entryX=1;entryY=0.5;entryDx=0;entryDy=0;" parent="1" source="hsRsZUTRCoiMY5jrvdhL-1" target="5GMF99luiS3yryMFOBaJ-1" edge="1">
          <mxGeometry relative="1" as="geometry" />
        </mxCell>
        <mxCell id="tayrchdnbF2UK3ZBhtBg-5" style="edgeStyle=orthogonalEdgeStyle;rounded=0;orthogonalLoop=1;jettySize=auto;html=1;" parent="1" source="hsRsZUTRCoiMY5jrvdhL-1" target="hsRsZUTRCoiMY5jrvdhL-15" edge="1">
          <mxGeometry relative="1" as="geometry" />
        </mxCell>
        <mxCell id="tayrchdnbF2UK3ZBhtBg-6" style="edgeStyle=orthogonalEdgeStyle;rounded=0;orthogonalLoop=1;jettySize=auto;html=1;entryX=0.5;entryY=0;entryDx=0;entryDy=0;" parent="1" source="hsRsZUTRCoiMY5jrvdhL-1" target="hsRsZUTRCoiMY5jrvdhL-62" edge="1">
          <mxGeometry relative="1" as="geometry" />
        </mxCell>
        <mxCell id="tayrchdnbF2UK3ZBhtBg-7" style="edgeStyle=orthogonalEdgeStyle;rounded=0;orthogonalLoop=1;jettySize=auto;html=1;" parent="1" source="hsRsZUTRCoiMY5jrvdhL-1" target="hsRsZUTRCoiMY5jrvdhL-54" edge="1">
          <mxGeometry relative="1" as="geometry" />
        </mxCell>
        <mxCell id="OuBXmGr73WI9B_g8OrTr-2" style="edgeStyle=orthogonalEdgeStyle;rounded=0;orthogonalLoop=1;jettySize=auto;html=1;entryX=0;entryY=0.5;entryDx=0;entryDy=0;" edge="1" parent="1" source="hsRsZUTRCoiMY5jrvdhL-1" target="OuBXmGr73WI9B_g8OrTr-1">
          <mxGeometry relative="1" as="geometry">
            <Array as="points">
              <mxPoint x="1895" y="2810" />
            </Array>
          </mxGeometry>
        </mxCell>
        <mxCell id="hsRsZUTRCoiMY5jrvdhL-1" value="FEM" style="ellipse;whiteSpace=wrap;html=1;" parent="1" vertex="1">
          <mxGeometry x="1835" y="3180" width="120" height="80" as="geometry" />
        </mxCell>
        <mxCell id="hsRsZUTRCoiMY5jrvdhL-49" style="edgeStyle=orthogonalEdgeStyle;rounded=0;orthogonalLoop=1;jettySize=auto;html=1;" parent="1" source="hsRsZUTRCoiMY5jrvdhL-2" target="hsRsZUTRCoiMY5jrvdhL-50" edge="1">
          <mxGeometry relative="1" as="geometry">
            <mxPoint x="2315" y="3130" as="targetPoint" />
          </mxGeometry>
        </mxCell>
        <mxCell id="hsRsZUTRCoiMY5jrvdhL-2" value="Langtangen (2016)" style="rounded=1;whiteSpace=wrap;html=1;" parent="1" vertex="1">
          <mxGeometry x="2100" y="3100" width="120" height="60" as="geometry" />
        </mxCell>
        <mxCell id="hsRsZUTRCoiMY5jrvdhL-48" style="edgeStyle=orthogonalEdgeStyle;rounded=0;orthogonalLoop=1;jettySize=auto;html=1;exitX=0.5;exitY=1;exitDx=0;exitDy=0;" parent="1" source="hsRsZUTRCoiMY5jrvdhL-4" target="hsRsZUTRCoiMY5jrvdhL-29" edge="1">
          <mxGeometry relative="1" as="geometry" />
        </mxCell>
        <mxCell id="hsRsZUTRCoiMY5jrvdhL-4" value="FreeFEM++ docs" style="rounded=1;whiteSpace=wrap;html=1;" parent="1" vertex="1">
          <mxGeometry x="2100" y="3190" width="120" height="60" as="geometry" />
        </mxCell>
        <UserObject label="TuxRiders Tutorials" link="https://www.youtube.com/playlist?list=PL6fjYEpJFi7Wu9ZFlak7r0QgrF0aNi8H1" linkTarget="_blank" id="hsRsZUTRCoiMY5jrvdhL-15">
          <mxCell style="swimlane;fontStyle=0;childLayout=stackLayout;horizontal=1;startSize=30;horizontalStack=0;resizeParent=1;resizeParentMax=0;resizeLast=0;collapsible=1;marginBottom=0;whiteSpace=wrap;html=1;" parent="1" vertex="1">
            <mxGeometry x="1765" y="3300" width="260" height="360" as="geometry">
              <mxRectangle x="1765" y="3300" width="155" height="30" as="alternateBounds" />
            </mxGeometry>
          </mxCell>
        </UserObject>
        <mxCell id="hsRsZUTRCoiMY5jrvdhL-16" value="Basic syntax" style="text;strokeColor=#82b366;fillColor=#d5e8d4;align=left;verticalAlign=middle;spacingLeft=4;spacingRight=4;overflow=hidden;points=[[0,0.5],[1,0.5]];portConstraint=eastwest;rotatable=0;whiteSpace=wrap;html=1;" parent="hsRsZUTRCoiMY5jrvdhL-15" vertex="1">
          <mxGeometry y="30" width="260" height="30" as="geometry" />
        </mxCell>
        <mxCell id="hsRsZUTRCoiMY5jrvdhL-17" value="Mesh generation 2D" style="text;strokeColor=#82b366;fillColor=#d5e8d4;align=left;verticalAlign=middle;spacingLeft=4;spacingRight=4;overflow=hidden;points=[[0,0.5],[1,0.5]];portConstraint=eastwest;rotatable=0;whiteSpace=wrap;html=1;" parent="hsRsZUTRCoiMY5jrvdhL-15" vertex="1">
          <mxGeometry y="60" width="260" height="30" as="geometry" />
        </mxCell>
        <mxCell id="hsRsZUTRCoiMY5jrvdhL-18" value="Mesh generation 3D" style="text;strokeColor=none;fillColor=none;align=left;verticalAlign=middle;spacingLeft=4;spacingRight=4;overflow=hidden;points=[[0,0.5],[1,0.5]];portConstraint=eastwest;rotatable=0;whiteSpace=wrap;html=1;" parent="hsRsZUTRCoiMY5jrvdhL-15" vertex="1">
          <mxGeometry y="90" width="260" height="30" as="geometry" />
        </mxCell>
        <mxCell id="hsRsZUTRCoiMY5jrvdhL-19" value="FEM spaces + function approximation" style="text;strokeColor=none;fillColor=none;align=left;verticalAlign=middle;spacingLeft=4;spacingRight=4;overflow=hidden;points=[[0,0.5],[1,0.5]];portConstraint=eastwest;rotatable=0;whiteSpace=wrap;html=1;" parent="hsRsZUTRCoiMY5jrvdhL-15" vertex="1">
          <mxGeometry y="120" width="260" height="30" as="geometry" />
        </mxCell>
        <mxCell id="hsRsZUTRCoiMY5jrvdhL-20" value="Weak formulation and solving models" style="text;strokeColor=none;fillColor=none;align=left;verticalAlign=middle;spacingLeft=4;spacingRight=4;overflow=hidden;points=[[0,0.5],[1,0.5]];portConstraint=eastwest;rotatable=0;whiteSpace=wrap;html=1;" parent="hsRsZUTRCoiMY5jrvdhL-15" vertex="1">
          <mxGeometry y="150" width="260" height="30" as="geometry" />
        </mxCell>
        <mxCell id="hsRsZUTRCoiMY5jrvdhL-21" value="Adaptive mesh generation" style="text;strokeColor=none;fillColor=none;align=left;verticalAlign=middle;spacingLeft=4;spacingRight=4;overflow=hidden;points=[[0,0.5],[1,0.5]];portConstraint=eastwest;rotatable=0;whiteSpace=wrap;html=1;" parent="hsRsZUTRCoiMY5jrvdhL-15" vertex="1">
          <mxGeometry y="180" width="260" height="30" as="geometry" />
        </mxCell>
        <mxCell id="hsRsZUTRCoiMY5jrvdhL-23" value="Visualization and I/O" style="text;strokeColor=none;fillColor=none;align=left;verticalAlign=middle;spacingLeft=4;spacingRight=4;overflow=hidden;points=[[0,0.5],[1,0.5]];portConstraint=eastwest;rotatable=0;whiteSpace=wrap;html=1;" parent="hsRsZUTRCoiMY5jrvdhL-15" vertex="1">
          <mxGeometry y="210" width="260" height="30" as="geometry" />
        </mxCell>
        <mxCell id="hsRsZUTRCoiMY5jrvdhL-22" value="Sub-domains and variable properties" style="text;strokeColor=none;fillColor=none;align=left;verticalAlign=middle;spacingLeft=4;spacingRight=4;overflow=hidden;points=[[0,0.5],[1,0.5]];portConstraint=eastwest;rotatable=0;whiteSpace=wrap;html=1;" parent="hsRsZUTRCoiMY5jrvdhL-15" vertex="1">
          <mxGeometry y="240" width="260" height="30" as="geometry" />
        </mxCell>
        <mxCell id="hsRsZUTRCoiMY5jrvdhL-24" value="Solvers and preconditioners" style="text;strokeColor=none;fillColor=none;align=left;verticalAlign=middle;spacingLeft=4;spacingRight=4;overflow=hidden;points=[[0,0.5],[1,0.5]];portConstraint=eastwest;rotatable=0;whiteSpace=wrap;html=1;" parent="hsRsZUTRCoiMY5jrvdhL-15" vertex="1">
          <mxGeometry y="270" width="260" height="30" as="geometry" />
        </mxCell>
        <mxCell id="hsRsZUTRCoiMY5jrvdhL-25" value="Parallel programming" style="text;strokeColor=none;fillColor=none;align=left;verticalAlign=middle;spacingLeft=4;spacingRight=4;overflow=hidden;points=[[0,0.5],[1,0.5]];portConstraint=eastwest;rotatable=0;whiteSpace=wrap;html=1;" parent="hsRsZUTRCoiMY5jrvdhL-15" vertex="1">
          <mxGeometry y="300" width="260" height="30" as="geometry" />
        </mxCell>
        <mxCell id="hsRsZUTRCoiMY5jrvdhL-26" value="Domaind decomposition and performance" style="text;strokeColor=none;fillColor=none;align=left;verticalAlign=middle;spacingLeft=4;spacingRight=4;overflow=hidden;points=[[0,0.5],[1,0.5]];portConstraint=eastwest;rotatable=0;whiteSpace=wrap;html=1;" parent="hsRsZUTRCoiMY5jrvdhL-15" vertex="1">
          <mxGeometry y="330" width="260" height="30" as="geometry" />
        </mxCell>
        <mxCell id="hsRsZUTRCoiMY5jrvdhL-29" value="Guided tutorials" style="swimlane;fontStyle=0;childLayout=stackLayout;horizontal=1;startSize=30;horizontalStack=0;resizeParent=1;resizeParentMax=0;resizeLast=0;collapsible=1;marginBottom=0;whiteSpace=wrap;html=1;" parent="1" vertex="1">
          <mxGeometry x="2100" y="3280" width="230" height="570" as="geometry">
            <mxRectangle x="2100" y="3280" width="120" height="30" as="alternateBounds" />
          </mxGeometry>
        </mxCell>
        <mxCell id="hsRsZUTRCoiMY5jrvdhL-45" value="Poisson&#39;s equation (2.1)" style="text;strokeColor=#82b366;fillColor=#d5e8d4;align=left;verticalAlign=middle;spacingLeft=4;spacingRight=4;overflow=hidden;points=[[0,0.5],[1,0.5]];portConstraint=eastwest;rotatable=0;whiteSpace=wrap;html=1;" parent="hsRsZUTRCoiMY5jrvdhL-29" vertex="1">
          <mxGeometry y="30" width="230" height="30" as="geometry" />
        </mxCell>
        <mxCell id="hsRsZUTRCoiMY5jrvdhL-30" value="Membrane (2.3)" style="text;strokeColor=#82b366;fillColor=#d5e8d4;align=left;verticalAlign=middle;spacingLeft=4;spacingRight=4;overflow=hidden;points=[[0,0.5],[1,0.5]];portConstraint=eastwest;rotatable=0;whiteSpace=wrap;html=1;" parent="hsRsZUTRCoiMY5jrvdhL-29" vertex="1">
          <mxGeometry y="60" width="230" height="30" as="geometry" />
        </mxCell>
        <mxCell id="hsRsZUTRCoiMY5jrvdhL-31" value="Heat exchanger (2.4)" style="text;strokeColor=#82b366;fillColor=#d5e8d4;align=left;verticalAlign=middle;spacingLeft=4;spacingRight=4;overflow=hidden;points=[[0,0.5],[1,0.5]];portConstraint=eastwest;rotatable=0;whiteSpace=wrap;html=1;" parent="hsRsZUTRCoiMY5jrvdhL-29" vertex="1">
          <mxGeometry y="90" width="230" height="30" as="geometry" />
        </mxCell>
        <mxCell id="hsRsZUTRCoiMY5jrvdhL-32" value="Acustics (2.5)" style="text;strokeColor=none;fillColor=none;align=left;verticalAlign=middle;spacingLeft=4;spacingRight=4;overflow=hidden;points=[[0,0.5],[1,0.5]];portConstraint=eastwest;rotatable=0;whiteSpace=wrap;html=1;" parent="hsRsZUTRCoiMY5jrvdhL-29" vertex="1">
          <mxGeometry y="120" width="230" height="30" as="geometry" />
        </mxCell>
        <mxCell id="hsRsZUTRCoiMY5jrvdhL-37" value="Thermal conduction (2.6)" style="text;strokeColor=none;fillColor=none;align=left;verticalAlign=middle;spacingLeft=4;spacingRight=4;overflow=hidden;points=[[0,0.5],[1,0.5]];portConstraint=eastwest;rotatable=0;whiteSpace=wrap;html=1;" parent="hsRsZUTRCoiMY5jrvdhL-29" vertex="1">
          <mxGeometry y="150" width="230" height="30" as="geometry" />
        </mxCell>
        <mxCell id="hsRsZUTRCoiMY5jrvdhL-36" value="Fan blade flow (2.7)" style="text;strokeColor=none;fillColor=none;align=left;verticalAlign=middle;spacingLeft=4;spacingRight=4;overflow=hidden;points=[[0,0.5],[1,0.5]];portConstraint=eastwest;rotatable=0;whiteSpace=wrap;html=1;" parent="hsRsZUTRCoiMY5jrvdhL-29" vertex="1">
          <mxGeometry y="180" width="230" height="30" as="geometry" />
        </mxCell>
        <mxCell id="hsRsZUTRCoiMY5jrvdhL-35" value="Pure convection (2.8)" style="text;strokeColor=none;fillColor=none;align=left;verticalAlign=middle;spacingLeft=4;spacingRight=4;overflow=hidden;points=[[0,0.5],[1,0.5]];portConstraint=eastwest;rotatable=0;whiteSpace=wrap;html=1;" parent="hsRsZUTRCoiMY5jrvdhL-29" vertex="1">
          <mxGeometry y="210" width="230" height="30" as="geometry" />
        </mxCell>
        <mxCell id="hsRsZUTRCoiMY5jrvdhL-34" value="Elasticity (2.9)" style="text;strokeColor=none;fillColor=none;align=left;verticalAlign=middle;spacingLeft=4;spacingRight=4;overflow=hidden;points=[[0,0.5],[1,0.5]];portConstraint=eastwest;rotatable=0;whiteSpace=wrap;html=1;" parent="hsRsZUTRCoiMY5jrvdhL-29" vertex="1">
          <mxGeometry y="240" width="230" height="30" as="geometry" />
        </mxCell>
        <mxCell id="hsRsZUTRCoiMY5jrvdhL-33" value="Stokes fluids (2.10)" style="text;strokeColor=none;fillColor=none;align=left;verticalAlign=middle;spacingLeft=4;spacingRight=4;overflow=hidden;points=[[0,0.5],[1,0.5]];portConstraint=eastwest;rotatable=0;whiteSpace=wrap;html=1;" parent="hsRsZUTRCoiMY5jrvdhL-29" vertex="1">
          <mxGeometry y="270" width="230" height="30" as="geometry" />
        </mxCell>
        <mxCell id="hsRsZUTRCoiMY5jrvdhL-41" value="Projection N-S equations (2.11)" style="text;strokeColor=none;fillColor=none;align=left;verticalAlign=middle;spacingLeft=4;spacingRight=4;overflow=hidden;points=[[0,0.5],[1,0.5]];portConstraint=eastwest;rotatable=0;whiteSpace=wrap;html=1;" parent="hsRsZUTRCoiMY5jrvdhL-29" vertex="1">
          <mxGeometry y="300" width="230" height="30" as="geometry" />
        </mxCell>
        <mxCell id="hsRsZUTRCoiMY5jrvdhL-40" value="Newtons method N-S equations (2.12)" style="text;strokeColor=none;fillColor=none;align=left;verticalAlign=middle;spacingLeft=4;spacingRight=4;overflow=hidden;points=[[0,0.5],[1,0.5]];portConstraint=eastwest;rotatable=0;whiteSpace=wrap;html=1;" parent="hsRsZUTRCoiMY5jrvdhL-29" vertex="1">
          <mxGeometry y="330" width="230" height="30" as="geometry" />
        </mxCell>
        <mxCell id="hsRsZUTRCoiMY5jrvdhL-39" value="Large fluid problem (2.13)" style="text;strokeColor=none;fillColor=none;align=left;verticalAlign=middle;spacingLeft=4;spacingRight=4;overflow=hidden;points=[[0,0.5],[1,0.5]];portConstraint=eastwest;rotatable=0;whiteSpace=wrap;html=1;" parent="hsRsZUTRCoiMY5jrvdhL-29" vertex="1">
          <mxGeometry y="360" width="230" height="30" as="geometry" />
        </mxCell>
        <mxCell id="hsRsZUTRCoiMY5jrvdhL-43" value="Complex numbers (2.14)" style="text;strokeColor=none;fillColor=none;align=left;verticalAlign=middle;spacingLeft=4;spacingRight=4;overflow=hidden;points=[[0,0.5],[1,0.5]];portConstraint=eastwest;rotatable=0;whiteSpace=wrap;html=1;" parent="hsRsZUTRCoiMY5jrvdhL-29" vertex="1">
          <mxGeometry y="390" width="230" height="30" as="geometry" />
        </mxCell>
        <mxCell id="hsRsZUTRCoiMY5jrvdhL-38" value="Optimal control (2.15)" style="text;strokeColor=none;fillColor=none;align=left;verticalAlign=middle;spacingLeft=4;spacingRight=4;overflow=hidden;points=[[0,0.5],[1,0.5]];portConstraint=eastwest;rotatable=0;whiteSpace=wrap;html=1;" parent="hsRsZUTRCoiMY5jrvdhL-29" vertex="1">
          <mxGeometry y="420" width="230" height="30" as="geometry" />
        </mxCell>
        <mxCell id="hsRsZUTRCoiMY5jrvdhL-44" value="Shock waves (2.16)" style="text;strokeColor=none;fillColor=none;align=left;verticalAlign=middle;spacingLeft=4;spacingRight=4;overflow=hidden;points=[[0,0.5],[1,0.5]];portConstraint=eastwest;rotatable=0;whiteSpace=wrap;html=1;" parent="hsRsZUTRCoiMY5jrvdhL-29" vertex="1">
          <mxGeometry y="450" width="230" height="30" as="geometry" />
        </mxCell>
        <mxCell id="hsRsZUTRCoiMY5jrvdhL-42" value="Schema optimization (2.17)" style="text;strokeColor=none;fillColor=none;align=left;verticalAlign=middle;spacingLeft=4;spacingRight=4;overflow=hidden;points=[[0,0.5],[1,0.5]];portConstraint=eastwest;rotatable=0;whiteSpace=wrap;html=1;" parent="hsRsZUTRCoiMY5jrvdhL-29" vertex="1">
          <mxGeometry y="480" width="230" height="30" as="geometry" />
        </mxCell>
        <mxCell id="hsRsZUTRCoiMY5jrvdhL-47" value="Transient N-S in matrix form (2.18)" style="text;strokeColor=none;fillColor=none;align=left;verticalAlign=middle;spacingLeft=4;spacingRight=4;overflow=hidden;points=[[0,0.5],[1,0.5]];portConstraint=eastwest;rotatable=0;whiteSpace=wrap;html=1;" parent="hsRsZUTRCoiMY5jrvdhL-29" vertex="1">
          <mxGeometry y="510" width="230" height="30" as="geometry" />
        </mxCell>
        <mxCell id="hsRsZUTRCoiMY5jrvdhL-46" value="WiFi propagation (2.19)" style="text;strokeColor=none;fillColor=none;align=left;verticalAlign=middle;spacingLeft=4;spacingRight=4;overflow=hidden;points=[[0,0.5],[1,0.5]];portConstraint=eastwest;rotatable=0;whiteSpace=wrap;html=1;" parent="hsRsZUTRCoiMY5jrvdhL-29" vertex="1">
          <mxGeometry y="540" width="230" height="30" as="geometry" />
        </mxCell>
        <UserObject label="mbarzegary notebooks" link="https://github.com/mbarzegary/finite-element-intro" linkTarget="_blank" id="hsRsZUTRCoiMY5jrvdhL-50">
          <mxCell style="rounded=1;whiteSpace=wrap;html=1;" parent="1" vertex="1">
            <mxGeometry x="2285" y="3100" width="120" height="60" as="geometry" />
          </mxCell>
        </UserObject>
        <mxCell id="hsRsZUTRCoiMY5jrvdhL-54" value="Lewis (2004)" style="swimlane;fontStyle=0;childLayout=stackLayout;horizontal=1;startSize=30;horizontalStack=0;resizeParent=1;resizeParentMax=0;resizeLast=0;collapsible=1;marginBottom=0;whiteSpace=wrap;html=1;" parent="1" vertex="1">
          <mxGeometry x="1335" y="3300" width="240" height="120" as="geometry">
            <mxRectangle x="1810" y="3070" width="155" height="30" as="alternateBounds" />
          </mxGeometry>
        </mxCell>
        <mxCell id="hsRsZUTRCoiMY5jrvdhL-55" value="Chapter 1 (skimmed)" style="text;strokeColor=#82b366;fillColor=#d5e8d4;align=left;verticalAlign=middle;spacingLeft=4;spacingRight=4;overflow=hidden;points=[[0,0.5],[1,0.5]];portConstraint=eastwest;rotatable=0;whiteSpace=wrap;html=1;" parent="hsRsZUTRCoiMY5jrvdhL-54" vertex="1">
          <mxGeometry y="30" width="240" height="30" as="geometry" />
        </mxCell>
        <mxCell id="hsRsZUTRCoiMY5jrvdhL-56" value="Chapter 2 (motivation cases)" style="text;strokeColor=#82b366;fillColor=#d5e8d4;align=left;verticalAlign=middle;spacingLeft=4;spacingRight=4;overflow=hidden;points=[[0,0.5],[1,0.5]];portConstraint=eastwest;rotatable=0;whiteSpace=wrap;html=1;" parent="hsRsZUTRCoiMY5jrvdhL-54" vertex="1">
          <mxGeometry y="60" width="240" height="30" as="geometry" />
        </mxCell>
        <mxCell id="hsRsZUTRCoiMY5jrvdhL-57" value="Chapter 3" style="text;strokeColor=none;fillColor=none;align=left;verticalAlign=middle;spacingLeft=4;spacingRight=4;overflow=hidden;points=[[0,0.5],[1,0.5]];portConstraint=eastwest;rotatable=0;whiteSpace=wrap;html=1;" parent="hsRsZUTRCoiMY5jrvdhL-54" vertex="1">
          <mxGeometry y="90" width="240" height="30" as="geometry" />
        </mxCell>
        <UserObject label="Cayton Pettit courses" link="https://www.youtube.com/@ClaytonPettit/playlists" linkTarget="_blank" id="hsRsZUTRCoiMY5jrvdhL-62">
          <mxCell style="swimlane;fontStyle=0;childLayout=stackLayout;horizontal=1;startSize=30;horizontalStack=0;resizeParent=1;resizeParentMax=0;resizeLast=0;collapsible=1;marginBottom=0;whiteSpace=wrap;html=1;" parent="1" vertex="1">
            <mxGeometry x="1605" y="3300" width="140" height="210" as="geometry">
              <mxRectangle x="1605" y="3300" width="155" height="30" as="alternateBounds" />
            </mxGeometry>
          </mxCell>
        </UserObject>
        <UserObject label="Statics for Engineering" link="https://www.youtube.com/watch?v=OY13rOiyT7c&amp;list=PLLSzlda_AXa36lD_wsg40uhbyvkj4x6er" linkTarget="_blank" id="hsRsZUTRCoiMY5jrvdhL-63">
          <mxCell style="text;strokeColor=none;fillColor=none;align=left;verticalAlign=middle;spacingLeft=4;spacingRight=4;overflow=hidden;points=[[0,0.5],[1,0.5]];portConstraint=eastwest;rotatable=0;whiteSpace=wrap;html=1;" parent="hsRsZUTRCoiMY5jrvdhL-62" vertex="1">
            <mxGeometry y="30" width="140" height="30" as="geometry" />
          </mxCell>
        </UserObject>
        <UserObject label="Continuum Mechanics" link="https://www.youtube.com/watch?v=b2k6MfXy9Tk&amp;list=PLLSzlda_AXa0SQuj_GoTW3DUv4uDE8wkm" linkTarget="_blank" id="hsRsZUTRCoiMY5jrvdhL-64">
          <mxCell style="text;strokeColor=none;fillColor=none;align=left;verticalAlign=middle;spacingLeft=4;spacingRight=4;overflow=hidden;points=[[0,0.5],[1,0.5]];portConstraint=eastwest;rotatable=0;whiteSpace=wrap;html=1;" parent="hsRsZUTRCoiMY5jrvdhL-62" vertex="1">
            <mxGeometry y="60" width="140" height="30" as="geometry" />
          </mxCell>
        </UserObject>
        <UserObject label="Statics Theory" link="https://www.youtube.com/watch?v=14fSeaIH6b0&amp;list=PLLSzlda_AXa3NO5NpsJHeEttr3pZVMBNR" linkTarget="_blank" id="hsRsZUTRCoiMY5jrvdhL-65">
          <mxCell style="text;strokeColor=none;fillColor=none;align=left;verticalAlign=middle;spacingLeft=4;spacingRight=4;overflow=hidden;points=[[0,0.5],[1,0.5]];portConstraint=eastwest;rotatable=0;whiteSpace=wrap;html=1;" parent="hsRsZUTRCoiMY5jrvdhL-62" vertex="1">
            <mxGeometry y="90" width="140" height="30" as="geometry" />
          </mxCell>
        </UserObject>
        <UserObject label="Solid Mechanics Theory" link="https://www.youtube.com/watch?v=DJbNMZcWr8A&amp;list=PLLSzlda_AXa1wN1EfoYdWZf31f_BOnWeY" linkTarget="_blank" id="hsRsZUTRCoiMY5jrvdhL-68">
          <mxCell style="text;strokeColor=none;fillColor=none;align=left;verticalAlign=middle;spacingLeft=4;spacingRight=4;overflow=hidden;points=[[0,0.5],[1,0.5]];portConstraint=eastwest;rotatable=0;whiteSpace=wrap;html=1;" parent="hsRsZUTRCoiMY5jrvdhL-62" vertex="1">
            <mxGeometry y="120" width="140" height="30" as="geometry" />
          </mxCell>
        </UserObject>
        <UserObject label="FEM Theory" link="https://www.youtube.com/watch?v=f1JUfXf2b8A&amp;list=PLLSzlda_AXa1HUjKvPiM9i98Vl6goijab" linkTarget="_blank" id="hsRsZUTRCoiMY5jrvdhL-67">
          <mxCell style="text;strokeColor=none;fillColor=none;align=left;verticalAlign=middle;spacingLeft=4;spacingRight=4;overflow=hidden;points=[[0,0.5],[1,0.5]];portConstraint=eastwest;rotatable=0;whiteSpace=wrap;html=1;" parent="hsRsZUTRCoiMY5jrvdhL-62" vertex="1">
            <mxGeometry y="150" width="140" height="30" as="geometry" />
          </mxCell>
        </UserObject>
        <UserObject label="FEM Intro" link="https://www.youtube.com/watch?v=2iUnfPRk6Ro&amp;list=PLLSzlda_AXa3yQEJAb5JcmsVDy9i9K_fi" linkTarget="_blank" id="hsRsZUTRCoiMY5jrvdhL-69">
          <mxCell style="text;strokeColor=none;fillColor=none;align=left;verticalAlign=middle;spacingLeft=4;spacingRight=4;overflow=hidden;points=[[0,0.5],[1,0.5]];portConstraint=eastwest;rotatable=0;whiteSpace=wrap;html=1;" parent="hsRsZUTRCoiMY5jrvdhL-62" vertex="1">
            <mxGeometry y="180" width="140" height="30" as="geometry" />
          </mxCell>
        </UserObject>
        <mxCell id="5GMF99luiS3yryMFOBaJ-1" value="Gmsh" style="rounded=1;whiteSpace=wrap;html=1;" parent="1" vertex="1">
          <mxGeometry x="1635" y="3080" width="120" height="60" as="geometry" />
        </mxCell>
        <mxCell id="tayrchdnbF2UK3ZBhtBg-28" style="edgeStyle=orthogonalEdgeStyle;rounded=0;orthogonalLoop=1;jettySize=auto;html=1;entryX=0.75;entryY=0;entryDx=0;entryDy=0;" parent="1" source="tayrchdnbF2UK3ZBhtBg-8" target="tayrchdnbF2UK3ZBhtBg-30" edge="1">
          <mxGeometry relative="1" as="geometry">
            <mxPoint x="3755" y="3420" as="targetPoint" />
          </mxGeometry>
        </mxCell>
        <mxCell id="tayrchdnbF2UK3ZBhtBg-81" style="edgeStyle=orthogonalEdgeStyle;rounded=0;orthogonalLoop=1;jettySize=auto;html=1;" parent="1" source="tayrchdnbF2UK3ZBhtBg-8" target="tayrchdnbF2UK3ZBhtBg-79" edge="1">
          <mxGeometry relative="1" as="geometry" />
        </mxCell>
        <mxCell id="tayrchdnbF2UK3ZBhtBg-8" value="OpenFOAM" style="ellipse;whiteSpace=wrap;html=1;" parent="1" vertex="1">
          <mxGeometry x="3800" y="3310" width="120" height="80" as="geometry" />
        </mxCell>
        <mxCell id="tayrchdnbF2UK3ZBhtBg-13" style="edgeStyle=orthogonalEdgeStyle;rounded=0;orthogonalLoop=1;jettySize=auto;html=1;entryX=0.5;entryY=0;entryDx=0;entryDy=0;" parent="1" source="tayrchdnbF2UK3ZBhtBg-12" target="tayrchdnbF2UK3ZBhtBg-14" edge="1">
          <mxGeometry relative="1" as="geometry">
            <mxPoint x="3320.000000000001" y="2970" as="targetPoint" />
          </mxGeometry>
        </mxCell>
        <mxCell id="tayrchdnbF2UK3ZBhtBg-26" style="edgeStyle=orthogonalEdgeStyle;rounded=0;orthogonalLoop=1;jettySize=auto;html=1;" parent="1" source="tayrchdnbF2UK3ZBhtBg-12" target="tayrchdnbF2UK3ZBhtBg-8" edge="1">
          <mxGeometry relative="1" as="geometry" />
        </mxCell>
        <mxCell id="tayrchdnbF2UK3ZBhtBg-12" value="CFD" style="ellipse;whiteSpace=wrap;html=1;" parent="1" vertex="1">
          <mxGeometry x="3470" y="2840" width="120" height="80" as="geometry" />
        </mxCell>
        <UserObject label="Particulate Flow Modeling" link="https://www.youtube.com/watch?v=DEvYyu15Mi4&amp;t=950s" linkTarget="_blank" id="tayrchdnbF2UK3ZBhtBg-14">
          <mxCell style="swimlane;fontStyle=0;childLayout=stackLayout;horizontal=1;startSize=30;horizontalStack=0;resizeParent=1;resizeParentMax=0;resizeLast=0;collapsible=1;marginBottom=0;whiteSpace=wrap;html=1;" parent="1" vertex="1">
            <mxGeometry x="3280" y="3000" width="180" height="120" as="geometry" />
          </mxCell>
        </UserObject>
        <mxCell id="tayrchdnbF2UK3ZBhtBg-15" value="Fully resolved" style="text;strokeColor=none;fillColor=none;align=left;verticalAlign=middle;spacingLeft=4;spacingRight=4;overflow=hidden;points=[[0,0.5],[1,0.5]];portConstraint=eastwest;rotatable=0;whiteSpace=wrap;html=1;" parent="tayrchdnbF2UK3ZBhtBg-14" vertex="1">
          <mxGeometry y="30" width="180" height="30" as="geometry" />
        </mxCell>
        <mxCell id="tayrchdnbF2UK3ZBhtBg-16" value="Euler-Lagrange" style="text;strokeColor=none;fillColor=none;align=left;verticalAlign=middle;spacingLeft=4;spacingRight=4;overflow=hidden;points=[[0,0.5],[1,0.5]];portConstraint=eastwest;rotatable=0;whiteSpace=wrap;html=1;" parent="tayrchdnbF2UK3ZBhtBg-14" vertex="1">
          <mxGeometry y="60" width="180" height="30" as="geometry" />
        </mxCell>
        <mxCell id="tayrchdnbF2UK3ZBhtBg-17" value="Euler-Euler" style="text;strokeColor=none;fillColor=none;align=left;verticalAlign=middle;spacingLeft=4;spacingRight=4;overflow=hidden;points=[[0,0.5],[1,0.5]];portConstraint=eastwest;rotatable=0;whiteSpace=wrap;html=1;" parent="tayrchdnbF2UK3ZBhtBg-14" vertex="1">
          <mxGeometry y="90" width="180" height="30" as="geometry" />
        </mxCell>
        <mxCell id="tayrchdnbF2UK3ZBhtBg-22" value="Clouds of droplets/particles, soved by concentration. Dense sprays, high load particle laden flows, liquid combustion" style="rounded=0;whiteSpace=wrap;html=1;" parent="1" vertex="1">
          <mxGeometry x="3450" y="3170" width="180" height="80" as="geometry" />
        </mxCell>
        <mxCell id="tayrchdnbF2UK3ZBhtBg-23" style="edgeStyle=orthogonalEdgeStyle;rounded=0;orthogonalLoop=1;jettySize=auto;html=1;entryX=0.5;entryY=0;entryDx=0;entryDy=0;" parent="1" source="tayrchdnbF2UK3ZBhtBg-17" target="tayrchdnbF2UK3ZBhtBg-22" edge="1">
          <mxGeometry relative="1" as="geometry" />
        </mxCell>
        <mxCell id="tayrchdnbF2UK3ZBhtBg-29" style="edgeStyle=orthogonalEdgeStyle;rounded=0;orthogonalLoop=1;jettySize=auto;html=1;" parent="1" source="tayrchdnbF2UK3ZBhtBg-24" target="tayrchdnbF2UK3ZBhtBg-30" edge="1">
          <mxGeometry relative="1" as="geometry">
            <mxPoint x="3650" y="3390" as="targetPoint" />
          </mxGeometry>
        </mxCell>
        <mxCell id="tayrchdnbF2UK3ZBhtBg-24" value="Dispersed droplets/particles. Better suited for secondary breakuo, dilute sprays, low load particle flows." style="rounded=0;whiteSpace=wrap;html=1;" parent="1" vertex="1">
          <mxGeometry x="3560" y="3035" width="180" height="80" as="geometry" />
        </mxCell>
        <mxCell id="tayrchdnbF2UK3ZBhtBg-25" style="edgeStyle=orthogonalEdgeStyle;rounded=0;orthogonalLoop=1;jettySize=auto;html=1;" parent="1" source="tayrchdnbF2UK3ZBhtBg-16" target="tayrchdnbF2UK3ZBhtBg-24" edge="1">
          <mxGeometry relative="1" as="geometry" />
        </mxCell>
        <mxCell id="tayrchdnbF2UK3ZBhtBg-30" value="incompressibleDenseParticleFluid" style="swimlane;fontStyle=0;childLayout=stackLayout;horizontal=1;startSize=30;horizontalStack=0;resizeParent=1;resizeParentMax=0;resizeLast=0;collapsible=1;marginBottom=0;whiteSpace=wrap;html=1;" parent="1" vertex="1">
          <mxGeometry x="3535" y="3430" width="230" height="120" as="geometry" />
        </mxCell>
        <mxCell id="tayrchdnbF2UK3ZBhtBg-31" value="Column" style="text;strokeColor=none;fillColor=none;align=left;verticalAlign=middle;spacingLeft=4;spacingRight=4;overflow=hidden;points=[[0,0.5],[1,0.5]];portConstraint=eastwest;rotatable=0;whiteSpace=wrap;html=1;" parent="tayrchdnbF2UK3ZBhtBg-30" vertex="1">
          <mxGeometry y="30" width="230" height="30" as="geometry" />
        </mxCell>
        <mxCell id="tayrchdnbF2UK3ZBhtBg-32" value="Cyclone" style="text;strokeColor=none;fillColor=none;align=left;verticalAlign=middle;spacingLeft=4;spacingRight=4;overflow=hidden;points=[[0,0.5],[1,0.5]];portConstraint=eastwest;rotatable=0;whiteSpace=wrap;html=1;" parent="tayrchdnbF2UK3ZBhtBg-30" vertex="1">
          <mxGeometry y="60" width="230" height="30" as="geometry" />
        </mxCell>
        <mxCell id="tayrchdnbF2UK3ZBhtBg-33" value="Goldschmidt" style="text;strokeColor=none;fillColor=none;align=left;verticalAlign=middle;spacingLeft=4;spacingRight=4;overflow=hidden;points=[[0,0.5],[1,0.5]];portConstraint=eastwest;rotatable=0;whiteSpace=wrap;html=1;" parent="tayrchdnbF2UK3ZBhtBg-30" vertex="1">
          <mxGeometry y="90" width="230" height="30" as="geometry" />
        </mxCell>
        <mxCell id="tayrchdnbF2UK3ZBhtBg-40" style="edgeStyle=orthogonalEdgeStyle;rounded=0;orthogonalLoop=1;jettySize=auto;html=1;entryX=0.5;entryY=0;entryDx=0;entryDy=0;" parent="1" source="tayrchdnbF2UK3ZBhtBg-36" target="tayrchdnbF2UK3ZBhtBg-14" edge="1">
          <mxGeometry relative="1" as="geometry" />
        </mxCell>
        <mxCell id="tayrchdnbF2UK3ZBhtBg-36" value="Stockes number" style="swimlane;fontStyle=0;childLayout=stackLayout;horizontal=1;startSize=30;horizontalStack=0;resizeParent=1;resizeParentMax=0;resizeLast=0;collapsible=1;marginBottom=0;whiteSpace=wrap;html=1;" parent="1" vertex="1">
          <mxGeometry x="3020" y="2890" width="210" height="90" as="geometry" />
        </mxCell>
        <mxCell id="tayrchdnbF2UK3ZBhtBg-37" value="Integral scale (large eddy)" style="text;strokeColor=none;fillColor=none;align=left;verticalAlign=middle;spacingLeft=4;spacingRight=4;overflow=hidden;points=[[0,0.5],[1,0.5]];portConstraint=eastwest;rotatable=0;whiteSpace=wrap;html=1;" parent="tayrchdnbF2UK3ZBhtBg-36" vertex="1">
          <mxGeometry y="30" width="210" height="30" as="geometry" />
        </mxCell>
        <mxCell id="tayrchdnbF2UK3ZBhtBg-38" value="Kolmogorov scale" style="text;strokeColor=none;fillColor=none;align=left;verticalAlign=middle;spacingLeft=4;spacingRight=4;overflow=hidden;points=[[0,0.5],[1,0.5]];portConstraint=eastwest;rotatable=0;whiteSpace=wrap;html=1;" parent="tayrchdnbF2UK3ZBhtBg-36" vertex="1">
          <mxGeometry y="60" width="210" height="30" as="geometry" />
        </mxCell>
        <mxCell id="tayrchdnbF2UK3ZBhtBg-80" value="" style="group" parent="1" vertex="1" connectable="0">
          <mxGeometry x="3655" y="3580" width="410" height="720" as="geometry" />
        </mxCell>
        <mxCell id="tayrchdnbF2UK3ZBhtBg-68" value="" style="group" parent="tayrchdnbF2UK3ZBhtBg-80" vertex="1" connectable="0">
          <mxGeometry x="30" y="250" width="350" height="220" as="geometry" />
        </mxCell>
        <mxCell id="tayrchdnbF2UK3ZBhtBg-66" value="" style="group" parent="tayrchdnbF2UK3ZBhtBg-68" vertex="1" connectable="0">
          <mxGeometry x="10" y="10" width="330" height="200" as="geometry" />
        </mxCell>
        <mxCell id="tayrchdnbF2UK3ZBhtBg-49" value="Enwald (1996)&lt;br&gt;Fluidisation&lt;br&gt;Ergun" style="rounded=1;whiteSpace=wrap;html=1;" parent="tayrchdnbF2UK3ZBhtBg-66" vertex="1">
          <mxGeometry width="160" height="60" as="geometry" />
        </mxCell>
        <mxCell id="tayrchdnbF2UK3ZBhtBg-51" value="Enwald (1996)&lt;br&gt;Fluidisation&lt;br&gt;Gibilaro" style="rounded=1;whiteSpace=wrap;html=1;" parent="tayrchdnbF2UK3ZBhtBg-66" vertex="1">
          <mxGeometry y="70" width="160" height="60" as="geometry" />
        </mxCell>
        <mxCell id="tayrchdnbF2UK3ZBhtBg-52" value="Gidaspow (1994)&lt;br&gt;Fluidisation&lt;br&gt;GidaspowErgunWenYu" style="rounded=1;whiteSpace=wrap;html=1;" parent="tayrchdnbF2UK3ZBhtBg-66" vertex="1">
          <mxGeometry x="90" y="140" width="160" height="60" as="geometry" />
        </mxCell>
        <mxCell id="tayrchdnbF2UK3ZBhtBg-53" value="Enwald (1996)&lt;br&gt;Fluidisation&lt;br&gt;GidaspowSchillerNaumann" style="rounded=1;whiteSpace=wrap;html=1;" parent="tayrchdnbF2UK3ZBhtBg-66" vertex="1">
          <mxGeometry x="170" width="160" height="60" as="geometry" />
        </mxCell>
        <mxCell id="tayrchdnbF2UK3ZBhtBg-65" value="Enwald (1996)&lt;br&gt;Fluidisation&lt;br&gt;WenYu" style="rounded=1;whiteSpace=wrap;html=1;" parent="tayrchdnbF2UK3ZBhtBg-66" vertex="1">
          <mxGeometry x="170" y="70" width="160" height="60" as="geometry" />
        </mxCell>
        <mxCell id="tayrchdnbF2UK3ZBhtBg-67" value="" style="swimlane;startSize=0;" parent="tayrchdnbF2UK3ZBhtBg-68" vertex="1">
          <mxGeometry width="350" height="220" as="geometry">
            <mxRectangle width="50" height="40" as="alternateBounds" />
          </mxGeometry>
        </mxCell>
        <mxCell id="tayrchdnbF2UK3ZBhtBg-78" value="" style="group" parent="tayrchdnbF2UK3ZBhtBg-80" vertex="1" connectable="0">
          <mxGeometry x="40" y="35" width="330" height="200" as="geometry" />
        </mxCell>
        <UserObject label="Davies (1945)&lt;br&gt;Dust&lt;br&gt;aerosolDrag" link="https://iopscience.iop.org/article/10.1088/0959-5309/57/4/301/pdf" linkTarget="_blank" id="tayrchdnbF2UK3ZBhtBg-41">
          <mxCell style="rounded=1;whiteSpace=wrap;html=1;" parent="tayrchdnbF2UK3ZBhtBg-78" vertex="1">
            <mxGeometry y="140" width="160" height="60" as="geometry" />
          </mxCell>
        </UserObject>
        <mxCell id="tayrchdnbF2UK3ZBhtBg-45" value="Gunjal (2007)&lt;br&gt;Packed beds&lt;br&gt;AttouFerschneider" style="rounded=1;whiteSpace=wrap;html=1;" parent="tayrchdnbF2UK3ZBhtBg-78" vertex="1">
          <mxGeometry x="170" y="140" width="160" height="60" as="geometry" />
        </mxCell>
        <mxCell id="tayrchdnbF2UK3ZBhtBg-47" value="Beetstra (2007)&lt;br&gt;Monodispersed&lt;br&gt;Beetstra" style="rounded=1;whiteSpace=wrap;html=1;" parent="tayrchdnbF2UK3ZBhtBg-78" vertex="1">
          <mxGeometry width="160" height="60" as="geometry" />
        </mxCell>
        <mxCell id="tayrchdnbF2UK3ZBhtBg-59" value="Marshall (2011)&lt;br&gt;No obvious dispersed phase&lt;br&gt;segregated" style="rounded=1;whiteSpace=wrap;html=1;" parent="tayrchdnbF2UK3ZBhtBg-78" vertex="1">
          <mxGeometry y="70" width="160" height="60" as="geometry" />
        </mxCell>
        <mxCell id="tayrchdnbF2UK3ZBhtBg-60" value="Syamlal (1993)&lt;br&gt;?&lt;br&gt;SyamlalObrien" style="rounded=1;whiteSpace=wrap;html=1;" parent="tayrchdnbF2UK3ZBhtBg-78" vertex="1">
          <mxGeometry x="170" y="70" width="160" height="60" as="geometry" />
        </mxCell>
        <mxCell id="tayrchdnbF2UK3ZBhtBg-61" value="Tenneti (2011)&lt;br&gt;Monodispersed DNS&lt;br&gt;Tenneti" style="rounded=1;whiteSpace=wrap;html=1;" parent="tayrchdnbF2UK3ZBhtBg-78" vertex="1">
          <mxGeometry x="170" width="160" height="60" as="geometry" />
        </mxCell>
        <mxCell id="tayrchdnbF2UK3ZBhtBg-73" value="" style="group" parent="tayrchdnbF2UK3ZBhtBg-80" vertex="1" connectable="0">
          <mxGeometry x="10" y="490" width="390" height="220" as="geometry" />
        </mxCell>
        <mxCell id="tayrchdnbF2UK3ZBhtBg-70" value="" style="group" parent="tayrchdnbF2UK3ZBhtBg-73" vertex="1" connectable="0">
          <mxGeometry x="210" width="180" height="220" as="geometry" />
        </mxCell>
        <mxCell id="tayrchdnbF2UK3ZBhtBg-54" value="Ishii (1979)&lt;br&gt;Dispersed bubbly flow&lt;br&gt;IshiiZuber" style="rounded=1;whiteSpace=wrap;html=1;" parent="tayrchdnbF2UK3ZBhtBg-70" vertex="1">
          <mxGeometry x="10" y="10" width="160" height="60" as="geometry" />
        </mxCell>
        <mxCell id="tayrchdnbF2UK3ZBhtBg-55" value="Otromke (2013) / Lain (2002)&lt;br&gt;Bubble columns flow&lt;br&gt;Lain" style="rounded=1;whiteSpace=wrap;html=1;" parent="tayrchdnbF2UK3ZBhtBg-70" vertex="1">
          <mxGeometry x="10" y="80" width="160" height="60" as="geometry" />
        </mxCell>
        <mxCell id="tayrchdnbF2UK3ZBhtBg-57" value="Schiller (?)&lt;br&gt;Dispersed bubbly flow&lt;br&gt;SchillerNaumann" style="rounded=1;whiteSpace=wrap;html=1;" parent="tayrchdnbF2UK3ZBhtBg-70" vertex="1">
          <mxGeometry x="10" y="150" width="160" height="60" as="geometry" />
        </mxCell>
        <mxCell id="tayrchdnbF2UK3ZBhtBg-69" value="" style="swimlane;startSize=0;" parent="tayrchdnbF2UK3ZBhtBg-70" vertex="1">
          <mxGeometry width="180" height="220" as="geometry" />
        </mxCell>
        <mxCell id="tayrchdnbF2UK3ZBhtBg-72" value="" style="group" parent="tayrchdnbF2UK3ZBhtBg-73" vertex="1" connectable="0">
          <mxGeometry width="200" height="220" as="geometry" />
        </mxCell>
        <mxCell id="tayrchdnbF2UK3ZBhtBg-62" value="Tomiyama (1993)&lt;br&gt;Single bubble&lt;br&gt;TomiyamaAnalytic" style="rounded=1;whiteSpace=wrap;html=1;" parent="tayrchdnbF2UK3ZBhtBg-72" vertex="1">
          <mxGeometry x="10" y="10" width="180" height="60" as="geometry" />
        </mxCell>
        <mxCell id="tayrchdnbF2UK3ZBhtBg-63" value="Tomiyama (2002)&lt;br&gt;Single bubble&lt;br&gt;TomiyamaCorrelated" style="rounded=1;whiteSpace=wrap;html=1;" parent="tayrchdnbF2UK3ZBhtBg-72" vertex="1">
          <mxGeometry x="10" y="80" width="180" height="60" as="geometry" />
        </mxCell>
        <mxCell id="tayrchdnbF2UK3ZBhtBg-64" value="Tomiyama (1998)&lt;br&gt;Single bubble&lt;br&gt;TomiyamaKataotaZunSakaguchi" style="rounded=1;whiteSpace=wrap;html=1;" parent="tayrchdnbF2UK3ZBhtBg-72" vertex="1">
          <mxGeometry x="10" y="150" width="180" height="60" as="geometry" />
        </mxCell>
        <mxCell id="tayrchdnbF2UK3ZBhtBg-71" value="" style="swimlane;startSize=0;" parent="tayrchdnbF2UK3ZBhtBg-72" vertex="1">
          <mxGeometry width="200" height="220" as="geometry" />
        </mxCell>
        <mxCell id="tayrchdnbF2UK3ZBhtBg-79" value="Drag models" style="swimlane;whiteSpace=wrap;html=1;" parent="tayrchdnbF2UK3ZBhtBg-80" vertex="1">
          <mxGeometry width="410" height="720" as="geometry">
            <mxRectangle x="4150" y="3000" width="110" height="30" as="alternateBounds" />
          </mxGeometry>
        </mxCell>
        <mxCell id="tayrchdnbF2UK3ZBhtBg-85" style="edgeStyle=orthogonalEdgeStyle;rounded=0;orthogonalLoop=1;jettySize=auto;html=1;" parent="1" source="tayrchdnbF2UK3ZBhtBg-82" target="tayrchdnbF2UK3ZBhtBg-84" edge="1">
          <mxGeometry relative="1" as="geometry" />
        </mxCell>
        <UserObject label="MP-PIC" link="https://en.wikipedia.org/wiki/Multiphase_particle-in-cell_method" linkTarget="_blank" id="tayrchdnbF2UK3ZBhtBg-82">
          <mxCell style="rounded=1;whiteSpace=wrap;html=1;" parent="1" vertex="1">
            <mxGeometry x="3160" y="3250" width="120" height="60" as="geometry" />
          </mxCell>
        </UserObject>
        <mxCell id="tayrchdnbF2UK3ZBhtBg-83" style="edgeStyle=orthogonalEdgeStyle;rounded=0;orthogonalLoop=1;jettySize=auto;html=1;" parent="1" source="tayrchdnbF2UK3ZBhtBg-16" target="tayrchdnbF2UK3ZBhtBg-82" edge="1">
          <mxGeometry relative="1" as="geometry" />
        </mxCell>
        <UserObject label="O&#39;Rourke (2010)" link="https://doi.org/10.1016/j.ces.2010.08.032" linkTarget="_blank" id="tayrchdnbF2UK3ZBhtBg-84">
          <mxCell style="rounded=1;whiteSpace=wrap;html=1;" parent="1" vertex="1">
            <mxGeometry x="2940" y="3250" width="120" height="60" as="geometry" />
          </mxCell>
        </UserObject>
        <mxCell id="OuBXmGr73WI9B_g8OrTr-1" value="Elmer Multiphysics" style="rounded=1;whiteSpace=wrap;html=1;" vertex="1" parent="1">
          <mxGeometry x="2370" y="2780" width="120" height="60" as="geometry" />
        </mxCell>
      </root>
    </mxGraphModel>
  </diagram>
</mxfile>
